<?xml version="1.0" encoding="UTF-8"?>
<svg width="100%" height="100%" viewBox="0 0 20 20" xmlns="http://www.w3.org/2000/svg" fill="currentColor">
  <g id="Page-1" fill="none" fill-rule="evenodd">
    <g id="baseline-cancel-24px" transform="translate(-2 -2)">
      <polygon id="Path" points="0 0 24 0 24 24 0 24" />
      <path d="M12,2 C6.47,2 2,6.47 2,12 C2,17.53 6.47,22 12,22 C17.53,22 22,17.53 22,12 C22,6.47 17.53,2 12,2 Z"
            id="Path" fill="rgba(255,255,255, 0.05)" fill-rule="nonzero" />
      <polygon id="Path" fill="#FFF" fill-rule="nonzero" points="17 15.59 15.59 17 12 13.41 8.41 17 7 15.59 10.59 12 7 8.41 8.41 7 12 10.59 15.59 7 17 8.41 13.41 12"
      />
    </g>
  </g>
</svg>
