<?xml version="1.0" encoding="UTF-8"?>
<svg width="18px" height="18px" viewBox="0 0 18 18" version="1.1" fill="currentColor">
  <g transform="translate(-6.000000, -6.000000)" fill="white" fill-rule="nonzero">
    <g transform="translate(3.000000, 3.000000)">
      <path
        d="M19,3 L5,3 C3.9,3 3,3.9 3,5 L3,19 C3,20.1 3.9,21 5,21 L19,21 C20.1,21 21,20.1 21,19 L21,5 C21,3.9 20.1,3 19,3 Z M10,19 L5,19 L5,12 L12,12 L12,17 C12,18.1045695 11.1045695,19 10,19 Z M19,12 L12,12 L12,7 C12,5.8954305 12.8954305,5 14,5 L19,5 L19,12 Z"/>
    </g>
  </g>
</svg>
