<?xml version="1.0" encoding="UTF-8"?>
<svg width="119px" height="30px" viewBox="0 0 119 30" version="1.1" xmlns="http://www.w3.org/2000/svg" xmlns:xlink="http://www.w3.org/1999/xlink">
    <!-- Generator: Sketch 51.2 (57519) - http://www.bohemiancoding.com/sketch -->
    <title>Artboard</title>
    <desc>Created with Sketch.</desc>
    <defs></defs>
    <g id="Artboard" stroke="none" stroke-width="1" fill="none" fill-rule="evenodd">
        <path d="M42.793818,11.5025725 L46.19752,11.5025725 L46.19752,23.0051212 L42.793818,23.0051212 L42.793818,11.5025725 Z M44.495669,10.5699334 C43.3848706,10.5699334 42.4843905,9.66522716 42.4843905,8.54921542 C42.4843905,7.43320368 43.3848706,6.52849741 44.495669,6.52849741 C45.6064674,6.52849741 46.5069475,7.43320368 46.5069475,8.54921542 C46.5069475,9.66522716 45.6064674,10.5699334 44.495669,10.5699334 Z M22.742918,23.0051212 C19.7523068,23.0051212 17.3279375,20.256206 17.3279375,16.8652472 C17.3279375,13.4742885 19.7523068,10.7253733 22.742918,10.7253733 C24.0843111,10.7253733 25.3554508,11.2783286 26.3013337,12.1942817 L26.3013337,11.036253 L29.550322,11.036253 L29.550322,23.0051212 L26.3013337,23.0051212 L26.3013337,21.8921271 C25.3619746,22.7810936 24.0621419,23.0051212 22.742918,23.0051212 Z M23.5164866,19.7408844 C25.0545152,19.7408844 26.3013337,18.4882142 26.3013337,16.9429672 C26.3013337,15.3977201 25.0545152,14.1450499 23.5164866,14.1450499 C21.978458,14.1450499 20.7316395,15.3977201 20.7316395,16.9429672 C20.7316395,18.4882142 21.978458,19.7408844 23.5164866,19.7408844 Z M8.04511383,23.0051212 C3.60192015,23.0051212 0,19.3862961 0,14.9222491 C0,10.4582022 3.60192015,6.8393771 8.04511383,6.8393771 C12.4883075,6.8393771 16.0902277,10.4582022 16.0902277,14.9222491 C16.0902277,19.3862961 12.4883075,23.0051212 8.04511383,23.0051212 Z M8.04511383,19.5854446 C10.6084948,19.5854446 12.6865257,17.4976609 12.6865257,14.9222491 C12.6865257,12.3468374 10.6084948,10.2590537 8.04511383,10.2590537 C5.48173286,10.2590537 3.40370201,12.3468374 3.40370201,14.9222491 C3.40370201,17.4976609 5.48173286,19.5854446 8.04511383,19.5854446 Z M48.270683,20.7513035 L50.003507,18.6217852 C51.2780828,19.7374726 52.4023258,20.2918722 53.376236,20.284984 C54.2838697,20.284984 54.7376866,19.8704777 54.7376866,19.0414652 C54.7376866,18.4133455 54.0775848,18.0506525 52.7573811,17.9533863 C50.0034566,17.4352535 48.6264944,16.1399214 48.6264944,14.0673901 C48.9047199,11.6108371 50.3848247,10.3776785 53.0668086,10.3679142 C54.7170883,10.361906 56.2177913,10.8904053 57.5689176,11.953412 L56.0837262,14.0518499 C54.8956975,13.4147432 53.8900583,13.0727768 53.0668086,13.0259507 C52.1392521,12.9731918 51.6235397,13.3203382 51.5196713,14.0673901 C51.5196713,14.6891495 51.9322412,15.036296 52.7573811,15.1088295 C56.1610831,15.5233358 57.8422855,16.8860276 57.8009882,19.1969051 C57.7855773,22.6165817 54.4592321,23.0051236 53.376236,23.0051813 C52.2932399,23.0052391 50.5925953,22.8526113 48.270683,20.7513035 Z M31.252173,20.7513035 L32.9849969,18.6217852 C34.2595728,19.7374726 35.3838158,20.2918722 36.357726,20.284984 C37.2653597,20.284984 37.7191766,19.8704777 37.7191766,19.0414652 C37.7191766,18.4133455 37.0590747,18.0506525 35.7388711,17.9533863 C32.9849466,17.4352535 31.6079843,16.1399214 31.6079843,14.0673901 C31.8862099,11.6108371 33.3663146,10.3776785 36.0482985,10.3679142 C37.6985783,10.361906 39.1992813,10.8904053 40.5504076,11.953412 L39.0652162,14.0518499 C37.8771875,13.4147432 36.8715482,13.0727768 36.0482985,13.0259507 C35.1207421,12.9731918 34.6050297,13.3203382 34.5011613,14.0673901 C34.5011613,14.6891495 34.9137312,15.036296 35.7388711,15.1088295 C39.1425731,15.5233358 40.8237754,16.8860276 40.7824782,19.1969051 C40.7670672,22.6165817 37.4407221,23.0051236 36.357726,23.0051813 C35.2747299,23.0052391 33.5740852,22.8526113 31.252173,20.7513035 Z" id="Combined-Shape" fill="#FFFFFF"></path>
        <path d="M68.3102366,0 L114.110237,0 C116.319376,-4.05812251e-16 118.110237,1.790861 118.110237,4 L118.110237,25.8445596 C118.110237,28.0536986 116.319376,29.8445596 114.110237,29.8445596 L68.3102366,29.8445596 C66.1010976,29.8445596 64.3102366,28.0536986 64.3102366,25.8445596 L64.3102366,4 C64.3102366,1.790861 66.1010976,4.05812251e-16 68.3102366,0 Z" id="Path" fill="#2F2F38"></path>
        <path d="M105.479727,13.6122666 L107.26,10.880829 L111.6,10.880829 L107.649146,16.9417831 L111.599885,23.0051813 L107.260881,23.0051813 L105.479063,20.27088 L103.696699,23.0051813 L99.3576955,23.0051813 L103.309644,16.9417831 L99.36,10.880829 L103.7,10.880829 L105.479727,13.6122666 Z M77.0049471,23.0051813 L70.8187425,23.0051813 L70.8187425,6.83937824 L77.0049471,6.83937824 C81.4464576,6.83937824 84.892358,10.4582165 84.892358,14.9222798 C84.892358,19.3863431 81.4464576,23.0051813 77.0049471,23.0051813 Z M77.0695284,19.4522576 C79.5587265,19.4522576 81.4899455,17.9066086 81.4899455,14.9222798 C81.4899455,11.937951 79.5587265,10.392302 77.0695284,10.392302 L74.3758102,10.392302 L74.3758102,19.4522576 L77.0695284,19.4522576 Z M92.2898215,23.0051813 C88.9586887,23.0051813 86.258272,20.2910526 86.258272,16.9430052 C86.258272,13.5949577 88.9586887,10.880829 92.2898215,10.880829 C95.6209543,10.880829 98.1667159,13.277536 98.1667159,16.9430052 C98.1667159,17.2262448 98.1667159,17.6925661 98.1667159,18.3419689 L89.8153397,18.3419689 C90.2664809,19.2466409 91.039865,19.7647756 92.1354919,19.8963731 C93.2311188,20.0279705 94.158941,19.7170896 94.9189585,18.9637306 L97.7027506,20.6735751 C96.7913829,21.9384376 95.1799318,23.0051813 92.2898215,23.0051813 Z M94.7643034,15.6994819 C94.7643034,14.7161393 93.6564401,13.8341969 92.2898215,13.8341969 C90.9232029,13.8341969 89.8153397,14.7161393 89.8153397,15.6994819 L94.7643034,15.6994819 Z" id="Combined-Shape" fill="#FFFFFF"></path>
    </g>
</svg>