<?xml version="1.0" encoding="UTF-8"?>
<svg width="18" height="18" viewBox="0 0 18 18" xmlns="http://www.w3.org/2000/svg">
  <g id="Artboard" fill="none" fillRule="evenodd">
    <path
      d="M8.99926333,1 C4.58218484,1 1,4.6723364 1,9.20270944 C1,12.8267058 3.29202861,15.9008335 6.47100893,16.9854643 C6.87126677,17.0609957 7.0171276,16.8077138 7.0171276,16.5901834 C7.0171276,16.3958159 7.010252,15.8796847 7.00632309,15.1953703 C4.78108598,15.6908562 4.31158108,14.0956332 4.31158108,14.0956332 C3.94766567,13.1479659 3.42315602,12.8956911 3.42315602,12.8956911 C2.69679855,12.387113 3.47816078,12.3971839 3.47816078,12.3971839 C4.28113202,12.4550913 4.70348998,13.242632 4.70348998,13.242632 C5.41707849,14.4959496 6.57610731,14.1339024 7.03186101,13.9239251 C7.10454587,13.3941983 7.31130483,13.0326547 7.5396728,12.8277128 C5.76331379,12.6207568 3.8956076,11.9168042 3.8956076,8.77369112 C3.8956076,7.87839233 4.20746493,7.1457378 4.71920562,6.57270629 C4.63669849,6.36524672 4.36216581,5.53087658 4.79778385,4.40193401 C4.79778385,4.40193401 5.46913656,4.18138234 6.99748304,5.2428502 C7.63544001,5.06056777 8.32005279,4.96993009 9.00024556,4.9664053 C9.67994721,4.96993009 10.3640689,5.06056777 11.0030081,5.2428502 C12.5303723,4.18138234 13.2007428,4.40193401 13.2007428,4.40193401 C13.6373431,5.53087658 13.3628104,6.36524672 13.2807944,6.57270629 C13.7935173,7.1457378 14.1029191,7.87839233 14.1029191,8.77369112 C14.1029191,11.9248609 12.2322662,12.6182391 10.4505049,12.8211668 C10.7373154,13.0744487 10.9931858,13.5749701 10.9931858,14.3403549 C10.9931858,15.4365672 10.9833635,16.3212916 10.9833635,16.5901834 C10.9833635,16.809728 11.127751,17.0650241 11.5334111,16.9849608 C14.7099358,15.8978123 17,12.8256987 17,9.20270944 C17,4.6723364 13.4178152,1 8.99926333,1"
      id="Github" fill="#161514"/>
  </g>
</svg>
