<?xml version="1.0" encoding="UTF-8"?>
<svg width="18" height="18" viewBox="0 0 18 18" xmlns="http://www.w3.org/2000/svg">
  <g id="Artboard-Copy-2" fill="none" fill-rule="evenodd">
    <path
      d="M8.59635332,16.9918129 C6.8266455,16.8400627 5.51288123,16.3712912 4.24382704,15.4387641 C2.18500356,13.9258978 1,11.572478 1,8.99651584 C1,5.02974923 3.80180746,1.74623692 7.73984316,1.09791478 C9.34733839,0.833271607 11.1275373,1.11105197 12.6166271,1.85888269 C16.2369672,3.67704143 17.8916403,7.86983005 16.5213394,11.7530583 C15.5805511,14.4191131 13.1107502,16.4511343 10.2837199,16.8850418 C9.72755319,16.9704051 8.9330136,17.0206806 8.59635332,16.9918129 Z M10.3181745,13.4133791 C10.8405802,13.2908523 11.2188276,13.1594974 11.5902871,12.9716107 C12.7463909,12.3868434 13.4701793,11.4160671 13.4701793,10.4502181 C13.4701793,10.1582307 13.4764534,10.1446318 13.7198157,9.90905799 C13.9129716,9.72208383 13.9885532,9.60127179 14.0538757,9.37508755 C14.1316824,9.10567228 14.1319332,9.06087141 14.0570779,8.80337794 C13.847098,8.08107255 13.0960244,7.75566218 12.423837,8.09575827 L12.1640369,8.22720498 L11.8963025,8.06246707 C11.3814154,7.74565302 10.465647,7.4353667 9.87517447,7.37765449 C9.71338421,7.36184159 9.50941729,7.3381477 9.42191128,7.32500128 L9.26281206,7.30109895 L9.33113455,6.95909119 C9.36871188,6.77098725 9.44701317,6.3997482 9.50513819,6.13411566 C9.56326233,5.86848303 9.6360913,5.5081632 9.66697965,5.33340493 C9.71162431,5.08081069 9.74208137,5.01566251 9.81552473,5.01566251 C9.86633683,5.01566251 10.2297937,5.08429489 10.6232067,5.16817889 C11.0166206,5.25206289 11.3465976,5.32069519 11.3564888,5.32069519 C11.3663808,5.32069519 11.3885695,5.39583518 11.4057987,5.48767296 C11.4493882,5.7200236 11.5625801,5.86430303 11.793834,5.98227998 C12.3488359,6.26542058 12.9735236,5.88816665 12.9735236,5.26985645 C12.9735236,4.50380014 12.0289643,4.16924094 11.5489348,4.76527281 C11.4561622,4.88046422 11.4096179,4.9015778 11.3201602,4.8690494 C11.2583913,4.84658909 10.834024,4.75170577 10.3771196,4.65819738 C9.77199172,4.53435387 9.52377151,4.50244725 9.4631134,4.5407097 C9.37050128,4.59912786 9.38245951,4.55596478 9.12730648,5.75282483 C8.82381979,7.17641324 8.80548671,7.25703901 8.77932872,7.28319657 C8.76550212,7.29702369 8.54603809,7.32987213 8.29163137,7.35619241 C7.5197997,7.4360454 6.67159186,7.70856565 6.09975702,8.06041925 L5.83535076,8.22310994 L5.57568033,8.09371105 C4.89784926,7.75593311 4.14551542,8.08148076 3.93565425,8.80337794 C3.86079899,9.06087141 3.86105004,9.10567228 3.93885729,9.37508755 C4.00417929,9.60127179 4.07976143,9.72208383 4.27291681,9.90905799 C4.51628056,10.1446318 4.52255352,10.1582307 4.52255352,10.4502181 C4.52255352,11.7844216 5.89379365,13.0576779 7.72539668,13.4241996 C8.3321861,13.5456243 8.37335785,13.5487215 9.14888251,13.5312961 C9.65571912,13.5199089 10.0210628,13.4830649 10.3181745,13.4133791 Z M8.18002318,12.4444555 C7.75937352,12.3497511 7.28363327,12.1384574 7.14423589,11.9844253 C7.03308147,11.8616008 7.08060558,11.6755409 7.22313154,11.6755409 C7.2786536,11.6755409 7.40865699,11.7332745 7.51202849,11.8038368 C8.21003852,12.2803075 9.78516574,12.2785805 10.4855013,11.8005825 C10.7110807,11.6466163 10.8956818,11.6508668 10.9184372,11.8105492 C10.929145,11.8856952 10.8811975,11.960448 10.7658647,12.0484166 C10.2058833,12.4755348 9.08235722,12.6476128 8.18002318,12.4444616 Z M6.89710651,10.5553777 C6.63520298,10.4132743 6.50569171,10.186585 6.50545576,9.86985788 C6.50520409,9.50681907 6.67382774,9.27189525 7.0163855,9.15811583 C7.26018281,9.07713913 7.28929469,9.07714173 7.50144745,9.15816356 C8.07237474,9.37620267 8.18920967,10.0884775 7.71648441,10.4691118 C7.47009309,10.667504 7.16329279,10.6998051 6.89710651,10.5553777 Z M10.4452711,10.5788169 C10.2025623,10.4525863 10.0668842,10.2991243 10.0094656,10.0858872 C9.90324248,9.69140722 10.1032161,9.30636934 10.4912843,9.15816356 C10.7034371,9.07714173 10.7325491,9.07713913 10.976347,9.15811583 C11.3189045,9.27189525 11.4875469,9.50681907 11.487277,9.86985788 C11.4870167,10.1923489 11.3549467,10.4172071 11.0847765,10.5550375 C10.8417587,10.6790162 10.6515281,10.6860896 10.4452711,10.5788169 Z"
      id="Reddit" fill="#000" fill-rule="nonzero"/>
  </g>
</svg>
