<?xml version="1.0" encoding="UTF-8"?>
<svg width="18" height="18" viewBox="0 0 18 18" xmlns="http://www.w3.org/2000/svg">
  <g id="Artboard-Copy" fill="none" fillRule="evenodd">
    <path
      d="M17.9999297,8.98730104 L17.999789,9.00023266 C17.999789,9.00456769 18,9.00860882 18,9.01301733 C18,9.95695201 17.7295734,10.8626062 17.1961052,11.7042635 C16.7170739,12.4601754 16.0460362,13.1287253 15.2017708,13.6923529 C13.5714046,14.7802988 11.4288103,15.3791943 9.16855065,15.3791943 C8.4136069,15.3791943 7.66956461,15.3126259 6.94767689,15.1806646 C6.49973235,15.6183558 5.97561824,16.0125497 5.42098004,16.3239372 C2.45754096,17.8242254 7.10542736e-15,16.3592053 7.10542736e-15,16.3592053 C7.10542736e-15,16.3592053 2.28487588,14.3982282 1.9133119,12.6793516 C0.890965854,11.6201345 0.337030973,10.3426963 0.337030973,9.0127969 C0.337030973,9.00831492 0.337241969,9.00420032 0.337241969,9.00001224 C0.337241969,8.99575068 0.337030973,8.99141565 0.337030973,8.98730104 C0.337030973,7.65740164 0.89117685,6.37996346 1.9133119,5.32052592 C2.28487588,3.60179626 7.10542736e-15,1.64089266 7.10542736e-15,1.64089266 C7.10542736e-15,1.64089266 2.45754096,0.175652112 5.42098004,1.67616071 C5.97568857,1.9875482 6.49994334,2.38152172 6.94767689,2.81943334 C7.66942394,2.68732511 8.4136069,2.62068318 9.16855065,2.62068318 C11.4286697,2.62068318 13.5714749,3.22001962 15.2017708,4.30789202 C16.0460362,4.87159303 16.7170739,5.54036344 17.1960348,6.29590794 C17.7295734,7.13771222 17.9999297,8.04292552 17.9999297,8.98730104 Z M9.16855065,3.95579932 C4.98330396,3.95579932 1.59041765,6.21964078 1.59062865,9.01264995 C1.59062865,10.2295446 2.23486983,11.3461458 3.3082769,12.2185157 C3.49296875,14.0377593 2.62999504,15.1421636 2.04750536,15.7957247 C3.8382989,16.2689044 5.68170078,14.8046925 6.51970664,13.7516473 C7.34413841,13.9568633 8.23665157,14.0694271 9.16855065,14.0694271 C13.3536567,14.0694271 16.746543,11.8052183 16.746543,9.01264995 C16.746543,6.21986121 13.3536567,3.95579932 9.16855065,3.95579932 Z M9.16855065,10.2270465 C8.61257614,10.2270465 8.16188865,9.75621802 8.16188865,9.17532384 C8.16188865,8.59450313 8.61257614,8.12367466 9.16855065,8.12367466 C9.72459549,8.12367466 10.175283,8.59450313 10.175283,9.17532384 C10.175283,9.75621802 9.72459549,10.2270465 9.16855065,10.2270465 Z M12.6685526,10.2270465 C12.1125781,10.2270465 11.6618906,9.75621802 11.6618906,9.17532384 C11.6618906,8.59450313 12.1125781,8.12367466 12.6685526,8.12367466 C13.2245271,8.12367466 13.6752849,8.59450313 13.6752849,9.17532384 C13.6752849,9.75621802 13.2245271,10.2270465 12.6685526,10.2270465 Z M5.66840804,10.2268261 C5.11250386,10.2268261 4.6618867,9.75607107 4.6618867,9.17532384 C4.6618867,8.59465008 5.11250386,8.12382161 5.66847837,8.12382161 C6.22431221,8.12382161 6.67492937,8.59465008 6.67492937,9.17539731 C6.67492937,9.75607107 6.22431221,10.2268261 5.66840804,10.2268261 Z"
      id="Rocket-Chat" fill="#000" fillRule="nonzero" />
  </g>
</svg>
