<svg width="20" height="20" viewBox="0 0 20 20" fill="none" xmlns="http://www.w3.org/2000/svg">
<path d="M10 20C15.5228 20 20 15.5228 20 10C20 4.47715 15.5228 0 10 0C4.47715 0 0 4.47715 0 10C0 15.5228 4.47715 20 10 20Z" fill="white"/>
<mask id="path-2-outside-1" maskUnits="userSpaceOnUse" x="4" y="3" width="12" height="14" fill="black">
<rect fill="white" x="4" y="3" width="12" height="14"/>
<path d="M14.94 12.5452L10.3942 4.24074C10.3556 4.16795 10.2984 4.10714 10.2287 4.06476C10.1589 4.02238 10.0792 4 9.99801 4C9.91679 4 9.83708 4.02238 9.76734 4.06476C9.69759 4.10714 9.64039 4.16795 9.60181 4.24074L5.05774 12.5452C4.93957 12.7593 5.00734 13.0372 5.21934 13.1646L9.77037 15.9363C9.84239 15.9781 9.92383 16 10.0067 16C10.0896 16 10.171 15.9781 10.243 15.9363L14.7871 13.1699C14.9887 13.0372 15.0634 12.7593 14.94 12.5452ZM11.5046 9.19826L11.3934 9.10269L11.3864 9.09561C11.351 9.06616 11.3139 9.03897 11.2752 9.01419L11.2683 9.00711C11.2318 8.98233 11.1935 8.95578 11.1501 8.93101C11.1431 8.93101 11.1431 8.92393 11.1379 8.92393C11.1014 8.89915 11.058 8.87968 11.0198 8.86021C11.0128 8.86021 11.0128 8.85313 11.0076 8.85313C10.9711 8.83366 10.9277 8.81596 10.8842 8.79649C10.8773 8.79649 10.8773 8.78941 10.8721 8.78941C10.8356 8.77702 10.7973 8.75755 10.7609 8.74517C10.6604 8.70683 10.5569 8.67722 10.4515 8.65667C10.3716 8.81419 10.2587 8.95401 10.1353 9.0726C10.3282 9.08499 10.5141 9.13632 10.6809 9.20534C10.7796 9.2486 10.8749 9.29948 10.9659 9.35755C10.9683 9.35781 10.9706 9.35857 10.9727 9.35979C10.9748 9.36101 10.9766 9.36266 10.9781 9.36463C11.0024 9.37702 11.0215 9.39649 11.0458 9.41596C11.0575 9.42251 11.068 9.43087 11.0771 9.44074C11.0996 9.45566 11.1206 9.47285 11.1397 9.49207C11.1518 9.50446 11.164 9.51154 11.1762 9.52393C11.1953 9.5434 11.2127 9.55578 11.2318 9.57525L11.2683 9.61242L11.3187 9.66375L11.3551 9.70092C11.3683 9.71914 11.3828 9.7363 11.3986 9.75224C11.4108 9.7664 11.4229 9.7841 11.4351 9.79649L11.4716 9.85313C11.4837 9.8726 11.4959 9.88499 11.5029 9.90446L11.5393 9.96109C11.5515 9.98056 11.5585 9.99826 11.5706 10.0124C11.5828 10.0319 11.5897 10.0496 11.6019 10.0691C11.6141 10.0885 11.621 10.1062 11.6332 10.1257C11.6401 10.1452 11.6523 10.1629 11.6575 10.1823C11.6697 10.2071 11.6766 10.2337 11.6888 10.2514C11.741 10.3807 11.7766 10.5163 11.7948 10.6549L11.8504 10.8761C11.8747 10.9717 12.0989 11.7788 12.6185 12.0514C13.2145 12.3664 14.0017 12.7593 14.311 12.9098L10.2274 15.3983V13.6938C10.2274 13.423 10.7539 13.1062 10.9954 13L11.0076 12.993C11.058 12.9682 11.1067 12.9416 11.157 12.9115L11.1762 12.8991C11.282 12.8353 11.3815 12.7612 11.4733 12.6779C11.4803 12.6708 11.4924 12.6655 11.4976 12.6531C11.5098 12.646 11.5168 12.6337 11.5289 12.6284C11.5602 12.6036 11.5845 12.5717 11.6158 12.5469L11.628 12.5345C11.6601 12.5039 11.6892 12.4701 11.7149 12.4337C11.7218 12.4213 11.734 12.4142 11.7392 12.4018C11.7635 12.377 11.7826 12.3452 11.8069 12.3133C11.8139 12.3062 11.8191 12.2938 11.8261 12.2885L11.9008 12.1753C11.9008 12.1682 11.9077 12.1682 11.9077 12.1629C11.939 12.1115 11.9703 12.0549 12.0016 12.0053C11.8782 11.8531 11.7844 11.6903 11.7096 11.5381C11.678 11.6317 11.6385 11.7223 11.5915 11.8089C11.5724 11.846 11.548 11.885 11.5289 11.9222C11.522 11.9292 11.522 11.9345 11.5168 11.9345C11.4976 11.9652 11.4767 11.9948 11.4542 12.023C11.4472 12.0301 11.442 12.0425 11.4351 12.0478C11.4158 12.0776 11.3931 12.105 11.3673 12.1292C11.3604 12.1363 11.3604 12.1416 11.3551 12.1416C11.2057 12.3115 11.0267 12.4567 10.8217 12.5576L10.7852 12.577C10.6792 12.6213 9.76863 13.0443 9.76863 13.6814V15.3859L5.67636 12.9045C5.94222 12.7399 6.71202 12.2726 7.34454 12.0708C7.59303 11.9894 8.11956 12.3292 8.4167 12.5753L8.43582 12.5947C8.47412 12.6339 8.51537 12.67 8.55919 12.7027L8.57136 12.7151C8.66519 12.7912 8.76424 12.8673 8.87545 12.9239L8.95018 12.9611C8.95257 12.9613 8.95489 12.9621 8.95699 12.9633C8.95908 12.9645 8.96091 12.9662 8.96234 12.9682C9.03011 13.0053 9.09788 13.0372 9.1726 13.0691C9.18272 13.074 9.19317 13.0781 9.20388 13.0814C9.21083 13.0814 9.21604 13.0885 9.22821 13.0885C9.33421 13.1257 9.43847 13.1576 9.54447 13.1841C9.6244 13.0266 9.74256 12.8868 9.86768 12.7682C9.69342 12.7561 9.52186 12.7179 9.35853 12.6549C9.35158 12.6478 9.33942 12.6478 9.33421 12.6425C9.31478 12.6365 9.29611 12.6282 9.2786 12.6177C9.27165 12.6107 9.25949 12.6107 9.25427 12.6053C9.23516 12.5983 9.21778 12.5859 9.20388 12.5806C9.0805 12.5168 8.96755 12.4478 8.86329 12.3593L8.70168 12.2071C8.55233 12.0734 8.39054 11.9549 8.21861 11.8531C7.81546 11.6195 7.47487 11.5434 7.21422 11.6266C6.67553 11.8036 6.06039 12.1381 5.68852 12.3593L9.77384 4.88322V8.16109C9.77384 8.27437 9.60702 8.57702 9.04227 8.8372L9.00578 8.85667C8.95018 8.88145 8.89978 8.91331 8.84418 8.94517L8.83201 8.95225C8.72511 9.01776 8.62343 9.09173 8.52792 9.17348C8.46774 9.22334 8.41193 9.27841 8.3611 9.33809L8.35415 9.34517C8.29922 9.39948 8.2492 9.45871 8.2047 9.52216L8.19775 9.52924C8.17343 9.5611 8.15431 9.59295 8.12998 9.62481C8.12998 9.63189 8.12303 9.63189 8.12303 9.6372C8.10392 9.66906 8.08654 9.69384 8.06743 9.7257C8.06743 9.73278 8.06047 9.73278 8.06047 9.73809L8.00487 9.83366C7.99792 9.84074 7.99792 9.84605 7.9927 9.85844C7.97359 9.8903 7.96143 9.92216 7.94926 9.94694C7.94901 9.94938 7.94826 9.95174 7.94707 9.95387C7.94587 9.95601 7.94425 9.95786 7.94231 9.95932C7.93015 9.99118 7.91798 10.016 7.90582 10.0478C7.90102 10.0581 7.89695 10.0688 7.89366 10.0797L7.85716 10.1753C7.85236 10.1856 7.8483 10.1962 7.845 10.2071C7.83922 10.2309 7.83107 10.254 7.82067 10.2761C7.81372 10.2885 7.81372 10.3009 7.80851 10.3133C7.80156 10.3452 7.78939 10.377 7.78418 10.4018C7.77723 10.4142 7.77723 10.4337 7.77202 10.4461C7.76507 10.4655 7.76507 10.4903 7.75985 10.5098C7.7529 10.5292 7.7529 10.5469 7.74769 10.5664C7.74074 10.5912 7.74074 10.6177 7.73553 10.6425C7.73553 10.662 7.72857 10.6744 7.72857 10.6938C7.72857 10.7186 7.72162 10.7381 7.72162 10.7629C7.72276 10.7861 7.72042 10.8094 7.71467 10.8319V10.9275C7.71394 11.0418 7.72207 11.156 7.739 11.2691C7.90061 11.3062 8.06743 11.377 8.24815 11.4655C8.19775 11.3009 8.17343 11.131 8.16821 10.954V10.9222C8.16706 10.8801 8.16939 10.8381 8.17516 10.7965V10.7646C8.17516 10.7275 8.18211 10.6956 8.18733 10.6567V10.6443C8.19428 10.6071 8.19949 10.5682 8.20644 10.5239C8.20644 10.5115 8.21339 10.5045 8.21339 10.4921C8.22034 10.4602 8.23251 10.4284 8.23772 10.3965C8.23772 10.3894 8.24467 10.3841 8.24467 10.377L8.28116 10.2637C8.28811 10.2567 8.28811 10.2443 8.29333 10.239C8.30549 10.2071 8.31765 10.1753 8.32982 10.1505C8.33677 10.1434 8.33677 10.1381 8.34198 10.1257C8.3611 10.0885 8.37326 10.0567 8.39759 10.0248C8.40225 10.0187 8.40633 10.0122 8.40975 10.0053C8.42887 9.97348 8.44103 9.9487 8.46014 9.91685C8.46481 9.91077 8.46888 9.90425 8.47231 9.89738C8.49317 9.86428 8.51579 9.83238 8.54008 9.8018C8.54006 9.80087 8.54022 9.79993 8.54056 9.79906C8.5409 9.79819 8.54141 9.7974 8.54206 9.79674C8.54271 9.79608 8.54349 9.79556 8.54434 9.79521C8.5452 9.79487 8.54611 9.7947 8.54703 9.79472C8.57136 9.76287 8.59047 9.73809 8.6148 9.70623C8.61946 9.70015 8.62354 9.69363 8.62696 9.68676C8.73883 9.56091 8.86615 9.45026 9.00578 9.35755L9.19867 9.26198C9.30467 9.21773 10.21 8.78233 10.21 8.1434V4.87791L14.3336 12.4177C13.9669 12.2354 13.317 11.9062 12.8148 11.6407C12.5229 11.4885 12.3317 10.9522 12.2761 10.7558L12.2205 10.5292C12.2205 10.4089 12.1892 10.2885 12.1528 10.1699C12.0218 9.79493 11.7987 9.46038 11.5046 9.19826Z"/>
</mask>
<path d="M14.94 12.5452L10.3942 4.24074C10.3556 4.16795 10.2984 4.10714 10.2287 4.06476C10.1589 4.02238 10.0792 4 9.99801 4C9.91679 4 9.83708 4.02238 9.76734 4.06476C9.69759 4.10714 9.64039 4.16795 9.60181 4.24074L5.05774 12.5452C4.93957 12.7593 5.00734 13.0372 5.21934 13.1646L9.77037 15.9363C9.84239 15.9781 9.92383 16 10.0067 16C10.0896 16 10.171 15.9781 10.243 15.9363L14.7871 13.1699C14.9887 13.0372 15.0634 12.7593 14.94 12.5452ZM11.5046 9.19826L11.3934 9.10269L11.3864 9.09561C11.351 9.06616 11.3139 9.03897 11.2752 9.01419L11.2683 9.00711C11.2318 8.98233 11.1935 8.95578 11.1501 8.93101C11.1431 8.93101 11.1431 8.92393 11.1379 8.92393C11.1014 8.89915 11.058 8.87968 11.0198 8.86021C11.0128 8.86021 11.0128 8.85313 11.0076 8.85313C10.9711 8.83366 10.9277 8.81596 10.8842 8.79649C10.8773 8.79649 10.8773 8.78941 10.8721 8.78941C10.8356 8.77702 10.7973 8.75755 10.7609 8.74517C10.6604 8.70683 10.5569 8.67722 10.4515 8.65667C10.3716 8.81419 10.2587 8.95401 10.1353 9.0726C10.3282 9.08499 10.5141 9.13632 10.6809 9.20534C10.7796 9.2486 10.8749 9.29948 10.9659 9.35755C10.9683 9.35781 10.9706 9.35857 10.9727 9.35979C10.9748 9.36101 10.9766 9.36266 10.9781 9.36463C11.0024 9.37702 11.0215 9.39649 11.0458 9.41596C11.0575 9.42251 11.068 9.43087 11.0771 9.44074C11.0996 9.45566 11.1206 9.47285 11.1397 9.49207C11.1518 9.50446 11.164 9.51154 11.1762 9.52393C11.1953 9.5434 11.2127 9.55578 11.2318 9.57525L11.2683 9.61242L11.3187 9.66375L11.3551 9.70092C11.3683 9.71914 11.3828 9.7363 11.3986 9.75224C11.4108 9.7664 11.4229 9.7841 11.4351 9.79649L11.4716 9.85313C11.4837 9.8726 11.4959 9.88499 11.5029 9.90446L11.5393 9.96109C11.5515 9.98056 11.5585 9.99826 11.5706 10.0124C11.5828 10.0319 11.5897 10.0496 11.6019 10.0691C11.6141 10.0885 11.621 10.1062 11.6332 10.1257C11.6401 10.1452 11.6523 10.1629 11.6575 10.1823C11.6697 10.2071 11.6766 10.2337 11.6888 10.2514C11.741 10.3807 11.7766 10.5163 11.7948 10.6549L11.8504 10.8761C11.8747 10.9717 12.0989 11.7788 12.6185 12.0514C13.2145 12.3664 14.0017 12.7593 14.311 12.9098L10.2274 15.3983V13.6938C10.2274 13.423 10.7539 13.1062 10.9954 13L11.0076 12.993C11.058 12.9682 11.1067 12.9416 11.157 12.9115L11.1762 12.8991C11.282 12.8353 11.3815 12.7612 11.4733 12.6779C11.4803 12.6708 11.4924 12.6655 11.4976 12.6531C11.5098 12.646 11.5168 12.6337 11.5289 12.6284C11.5602 12.6036 11.5845 12.5717 11.6158 12.5469L11.628 12.5345C11.6601 12.5039 11.6892 12.4701 11.7149 12.4337C11.7218 12.4213 11.734 12.4142 11.7392 12.4018C11.7635 12.377 11.7826 12.3452 11.8069 12.3133C11.8139 12.3062 11.8191 12.2938 11.8261 12.2885L11.9008 12.1753C11.9008 12.1682 11.9077 12.1682 11.9077 12.1629C11.939 12.1115 11.9703 12.0549 12.0016 12.0053C11.8782 11.8531 11.7844 11.6903 11.7096 11.5381C11.678 11.6317 11.6385 11.7223 11.5915 11.8089C11.5724 11.846 11.548 11.885 11.5289 11.9222C11.522 11.9292 11.522 11.9345 11.5168 11.9345C11.4976 11.9652 11.4767 11.9948 11.4542 12.023C11.4472 12.0301 11.442 12.0425 11.4351 12.0478C11.4158 12.0776 11.3931 12.105 11.3673 12.1292C11.3604 12.1363 11.3604 12.1416 11.3551 12.1416C11.2057 12.3115 11.0267 12.4567 10.8217 12.5576L10.7852 12.577C10.6792 12.6213 9.76863 13.0443 9.76863 13.6814V15.3859L5.67636 12.9045C5.94222 12.7399 6.71202 12.2726 7.34454 12.0708C7.59303 11.9894 8.11956 12.3292 8.4167 12.5753L8.43582 12.5947C8.47412 12.6339 8.51537 12.67 8.55919 12.7027L8.57136 12.7151C8.66519 12.7912 8.76424 12.8673 8.87545 12.9239L8.95018 12.9611C8.95257 12.9613 8.95489 12.9621 8.95699 12.9633C8.95908 12.9645 8.96091 12.9662 8.96234 12.9682C9.03011 13.0053 9.09788 13.0372 9.1726 13.0691C9.18272 13.074 9.19317 13.0781 9.20388 13.0814C9.21083 13.0814 9.21604 13.0885 9.22821 13.0885C9.33421 13.1257 9.43847 13.1576 9.54447 13.1841C9.6244 13.0266 9.74256 12.8868 9.86768 12.7682C9.69342 12.7561 9.52186 12.7179 9.35853 12.6549C9.35158 12.6478 9.33942 12.6478 9.33421 12.6425C9.31478 12.6365 9.29611 12.6282 9.2786 12.6177C9.27165 12.6107 9.25949 12.6107 9.25427 12.6053C9.23516 12.5983 9.21778 12.5859 9.20388 12.5806C9.0805 12.5168 8.96755 12.4478 8.86329 12.3593L8.70168 12.2071C8.55233 12.0734 8.39054 11.9549 8.21861 11.8531C7.81546 11.6195 7.47487 11.5434 7.21422 11.6266C6.67553 11.8036 6.06039 12.1381 5.68852 12.3593L9.77384 4.88322V8.16109C9.77384 8.27437 9.60702 8.57702 9.04227 8.8372L9.00578 8.85667C8.95018 8.88145 8.89978 8.91331 8.84418 8.94517L8.83201 8.95225C8.72511 9.01776 8.62343 9.09173 8.52792 9.17348C8.46774 9.22334 8.41193 9.27841 8.3611 9.33809L8.35415 9.34517C8.29922 9.39948 8.2492 9.45871 8.2047 9.52216L8.19775 9.52924C8.17343 9.5611 8.15431 9.59295 8.12998 9.62481C8.12998 9.63189 8.12303 9.63189 8.12303 9.6372C8.10392 9.66906 8.08654 9.69384 8.06743 9.7257C8.06743 9.73278 8.06047 9.73278 8.06047 9.73809L8.00487 9.83366C7.99792 9.84074 7.99792 9.84605 7.9927 9.85844C7.97359 9.8903 7.96143 9.92216 7.94926 9.94694C7.94901 9.94938 7.94826 9.95174 7.94707 9.95387C7.94587 9.95601 7.94425 9.95786 7.94231 9.95932C7.93015 9.99118 7.91798 10.016 7.90582 10.0478C7.90102 10.0581 7.89695 10.0688 7.89366 10.0797L7.85716 10.1753C7.85236 10.1856 7.8483 10.1962 7.845 10.2071C7.83922 10.2309 7.83107 10.254 7.82067 10.2761C7.81372 10.2885 7.81372 10.3009 7.80851 10.3133C7.80156 10.3452 7.78939 10.377 7.78418 10.4018C7.77723 10.4142 7.77723 10.4337 7.77202 10.4461C7.76507 10.4655 7.76507 10.4903 7.75985 10.5098C7.7529 10.5292 7.7529 10.5469 7.74769 10.5664C7.74074 10.5912 7.74074 10.6177 7.73553 10.6425C7.73553 10.662 7.72857 10.6744 7.72857 10.6938C7.72857 10.7186 7.72162 10.7381 7.72162 10.7629C7.72276 10.7861 7.72042 10.8094 7.71467 10.8319V10.9275C7.71394 11.0418 7.72207 11.156 7.739 11.2691C7.90061 11.3062 8.06743 11.377 8.24815 11.4655C8.19775 11.3009 8.17343 11.131 8.16821 10.954V10.9222C8.16706 10.8801 8.16939 10.8381 8.17516 10.7965V10.7646C8.17516 10.7275 8.18211 10.6956 8.18733 10.6567V10.6443C8.19428 10.6071 8.19949 10.5682 8.20644 10.5239C8.20644 10.5115 8.21339 10.5045 8.21339 10.4921C8.22034 10.4602 8.23251 10.4284 8.23772 10.3965C8.23772 10.3894 8.24467 10.3841 8.24467 10.377L8.28116 10.2637C8.28811 10.2567 8.28811 10.2443 8.29333 10.239C8.30549 10.2071 8.31765 10.1753 8.32982 10.1505C8.33677 10.1434 8.33677 10.1381 8.34198 10.1257C8.3611 10.0885 8.37326 10.0567 8.39759 10.0248C8.40225 10.0187 8.40633 10.0122 8.40975 10.0053C8.42887 9.97348 8.44103 9.9487 8.46014 9.91685C8.46481 9.91077 8.46888 9.90425 8.47231 9.89738C8.49317 9.86428 8.51579 9.83238 8.54008 9.8018C8.54006 9.80087 8.54022 9.79993 8.54056 9.79906C8.5409 9.79819 8.54141 9.7974 8.54206 9.79674C8.54271 9.79608 8.54349 9.79556 8.54434 9.79521C8.5452 9.79487 8.54611 9.7947 8.54703 9.79472C8.57136 9.76287 8.59047 9.73809 8.6148 9.70623C8.61946 9.70015 8.62354 9.69363 8.62696 9.68676C8.73883 9.56091 8.86615 9.45026 9.00578 9.35755L9.19867 9.26198C9.30467 9.21773 10.21 8.78233 10.21 8.1434V4.87791L14.3336 12.4177C13.9669 12.2354 13.317 11.9062 12.8148 11.6407C12.5229 11.4885 12.3317 10.9522 12.2761 10.7558L12.2205 10.5292C12.2205 10.4089 12.1892 10.2885 12.1528 10.1699C12.0218 9.79493 11.7987 9.46038 11.5046 9.19826Z" fill="black"/>
<path d="M14.94 12.5452L10.3942 4.24074C10.3556 4.16795 10.2984 4.10714 10.2287 4.06476C10.1589 4.02238 10.0792 4 9.99801 4C9.91679 4 9.83708 4.02238 9.76734 4.06476C9.69759 4.10714 9.64039 4.16795 9.60181 4.24074L5.05774 12.5452C4.93957 12.7593 5.00734 13.0372 5.21934 13.1646L9.77037 15.9363C9.84239 15.9781 9.92383 16 10.0067 16C10.0896 16 10.171 15.9781 10.243 15.9363L14.7871 13.1699C14.9887 13.0372 15.0634 12.7593 14.94 12.5452ZM11.5046 9.19826L11.3934 9.10269L11.3864 9.09561C11.351 9.06616 11.3139 9.03897 11.2752 9.01419L11.2683 9.00711C11.2318 8.98233 11.1935 8.95578 11.1501 8.93101C11.1431 8.93101 11.1431 8.92393 11.1379 8.92393C11.1014 8.89915 11.058 8.87968 11.0198 8.86021C11.0128 8.86021 11.0128 8.85313 11.0076 8.85313C10.9711 8.83366 10.9277 8.81596 10.8842 8.79649C10.8773 8.79649 10.8773 8.78941 10.8721 8.78941C10.8356 8.77702 10.7973 8.75755 10.7609 8.74517C10.6604 8.70683 10.5569 8.67722 10.4515 8.65667C10.3716 8.81419 10.2587 8.95401 10.1353 9.0726C10.3282 9.08499 10.5141 9.13632 10.6809 9.20534C10.7796 9.2486 10.8749 9.29948 10.9659 9.35755C10.9683 9.35781 10.9706 9.35857 10.9727 9.35979C10.9748 9.36101 10.9766 9.36266 10.9781 9.36463C11.0024 9.37702 11.0215 9.39649 11.0458 9.41596C11.0575 9.42251 11.068 9.43087 11.0771 9.44074C11.0996 9.45566 11.1206 9.47285 11.1397 9.49207C11.1518 9.50446 11.164 9.51154 11.1762 9.52393C11.1953 9.5434 11.2127 9.55578 11.2318 9.57525L11.2683 9.61242L11.3187 9.66375L11.3551 9.70092C11.3683 9.71914 11.3828 9.7363 11.3986 9.75224C11.4108 9.7664 11.4229 9.7841 11.4351 9.79649L11.4716 9.85313C11.4837 9.8726 11.4959 9.88499 11.5029 9.90446L11.5393 9.96109C11.5515 9.98056 11.5585 9.99826 11.5706 10.0124C11.5828 10.0319 11.5897 10.0496 11.6019 10.0691C11.6141 10.0885 11.621 10.1062 11.6332 10.1257C11.6401 10.1452 11.6523 10.1629 11.6575 10.1823C11.6697 10.2071 11.6766 10.2337 11.6888 10.2514C11.741 10.3807 11.7766 10.5163 11.7948 10.6549L11.8504 10.8761C11.8747 10.9717 12.0989 11.7788 12.6185 12.0514C13.2145 12.3664 14.0017 12.7593 14.311 12.9098L10.2274 15.3983V13.6938C10.2274 13.423 10.7539 13.1062 10.9954 13L11.0076 12.993C11.058 12.9682 11.1067 12.9416 11.157 12.9115L11.1762 12.8991C11.282 12.8353 11.3815 12.7612 11.4733 12.6779C11.4803 12.6708 11.4924 12.6655 11.4976 12.6531C11.5098 12.646 11.5168 12.6337 11.5289 12.6284C11.5602 12.6036 11.5845 12.5717 11.6158 12.5469L11.628 12.5345C11.6601 12.5039 11.6892 12.4701 11.7149 12.4337C11.7218 12.4213 11.734 12.4142 11.7392 12.4018C11.7635 12.377 11.7826 12.3452 11.8069 12.3133C11.8139 12.3062 11.8191 12.2938 11.8261 12.2885L11.9008 12.1753C11.9008 12.1682 11.9077 12.1682 11.9077 12.1629C11.939 12.1115 11.9703 12.0549 12.0016 12.0053C11.8782 11.8531 11.7844 11.6903 11.7096 11.5381C11.678 11.6317 11.6385 11.7223 11.5915 11.8089C11.5724 11.846 11.548 11.885 11.5289 11.9222C11.522 11.9292 11.522 11.9345 11.5168 11.9345C11.4976 11.9652 11.4767 11.9948 11.4542 12.023C11.4472 12.0301 11.442 12.0425 11.4351 12.0478C11.4158 12.0776 11.3931 12.105 11.3673 12.1292C11.3604 12.1363 11.3604 12.1416 11.3551 12.1416C11.2057 12.3115 11.0267 12.4567 10.8217 12.5576L10.7852 12.577C10.6792 12.6213 9.76863 13.0443 9.76863 13.6814V15.3859L5.67636 12.9045C5.94222 12.7399 6.71202 12.2726 7.34454 12.0708C7.59303 11.9894 8.11956 12.3292 8.4167 12.5753L8.43582 12.5947C8.47412 12.6339 8.51537 12.67 8.55919 12.7027L8.57136 12.7151C8.66519 12.7912 8.76424 12.8673 8.87545 12.9239L8.95018 12.9611C8.95257 12.9613 8.95489 12.9621 8.95699 12.9633C8.95908 12.9645 8.96091 12.9662 8.96234 12.9682C9.03011 13.0053 9.09788 13.0372 9.1726 13.0691C9.18272 13.074 9.19317 13.0781 9.20388 13.0814C9.21083 13.0814 9.21604 13.0885 9.22821 13.0885C9.33421 13.1257 9.43847 13.1576 9.54447 13.1841C9.6244 13.0266 9.74256 12.8868 9.86768 12.7682C9.69342 12.7561 9.52186 12.7179 9.35853 12.6549C9.35158 12.6478 9.33942 12.6478 9.33421 12.6425C9.31478 12.6365 9.29611 12.6282 9.2786 12.6177C9.27165 12.6107 9.25949 12.6107 9.25427 12.6053C9.23516 12.5983 9.21778 12.5859 9.20388 12.5806C9.0805 12.5168 8.96755 12.4478 8.86329 12.3593L8.70168 12.2071C8.55233 12.0734 8.39054 11.9549 8.21861 11.8531C7.81546 11.6195 7.47487 11.5434 7.21422 11.6266C6.67553 11.8036 6.06039 12.1381 5.68852 12.3593L9.77384 4.88322V8.16109C9.77384 8.27437 9.60702 8.57702 9.04227 8.8372L9.00578 8.85667C8.95018 8.88145 8.89978 8.91331 8.84418 8.94517L8.83201 8.95225C8.72511 9.01776 8.62343 9.09173 8.52792 9.17348C8.46774 9.22334 8.41193 9.27841 8.3611 9.33809L8.35415 9.34517C8.29922 9.39948 8.2492 9.45871 8.2047 9.52216L8.19775 9.52924C8.17343 9.5611 8.15431 9.59295 8.12998 9.62481C8.12998 9.63189 8.12303 9.63189 8.12303 9.6372C8.10392 9.66906 8.08654 9.69384 8.06743 9.7257C8.06743 9.73278 8.06047 9.73278 8.06047 9.73809L8.00487 9.83366C7.99792 9.84074 7.99792 9.84605 7.9927 9.85844C7.97359 9.8903 7.96143 9.92216 7.94926 9.94694C7.94901 9.94938 7.94826 9.95174 7.94707 9.95387C7.94587 9.95601 7.94425 9.95786 7.94231 9.95932C7.93015 9.99118 7.91798 10.016 7.90582 10.0478C7.90102 10.0581 7.89695 10.0688 7.89366 10.0797L7.85716 10.1753C7.85236 10.1856 7.8483 10.1962 7.845 10.2071C7.83922 10.2309 7.83107 10.254 7.82067 10.2761C7.81372 10.2885 7.81372 10.3009 7.80851 10.3133C7.80156 10.3452 7.78939 10.377 7.78418 10.4018C7.77723 10.4142 7.77723 10.4337 7.77202 10.4461C7.76507 10.4655 7.76507 10.4903 7.75985 10.5098C7.7529 10.5292 7.7529 10.5469 7.74769 10.5664C7.74074 10.5912 7.74074 10.6177 7.73553 10.6425C7.73553 10.662 7.72857 10.6744 7.72857 10.6938C7.72857 10.7186 7.72162 10.7381 7.72162 10.7629C7.72276 10.7861 7.72042 10.8094 7.71467 10.8319V10.9275C7.71394 11.0418 7.72207 11.156 7.739 11.2691C7.90061 11.3062 8.06743 11.377 8.24815 11.4655C8.19775 11.3009 8.17343 11.131 8.16821 10.954V10.9222C8.16706 10.8801 8.16939 10.8381 8.17516 10.7965V10.7646C8.17516 10.7275 8.18211 10.6956 8.18733 10.6567V10.6443C8.19428 10.6071 8.19949 10.5682 8.20644 10.5239C8.20644 10.5115 8.21339 10.5045 8.21339 10.4921C8.22034 10.4602 8.23251 10.4284 8.23772 10.3965C8.23772 10.3894 8.24467 10.3841 8.24467 10.377L8.28116 10.2637C8.28811 10.2567 8.28811 10.2443 8.29333 10.239C8.30549 10.2071 8.31765 10.1753 8.32982 10.1505C8.33677 10.1434 8.33677 10.1381 8.34198 10.1257C8.3611 10.0885 8.37326 10.0567 8.39759 10.0248C8.40225 10.0187 8.40633 10.0122 8.40975 10.0053C8.42887 9.97348 8.44103 9.9487 8.46014 9.91685C8.46481 9.91077 8.46888 9.90425 8.47231 9.89738C8.49317 9.86428 8.51579 9.83238 8.54008 9.8018C8.54006 9.80087 8.54022 9.79993 8.54056 9.79906C8.5409 9.79819 8.54141 9.7974 8.54206 9.79674C8.54271 9.79608 8.54349 9.79556 8.54434 9.79521C8.5452 9.79487 8.54611 9.7947 8.54703 9.79472C8.57136 9.76287 8.59047 9.73809 8.6148 9.70623C8.61946 9.70015 8.62354 9.69363 8.62696 9.68676C8.73883 9.56091 8.86615 9.45026 9.00578 9.35755L9.19867 9.26198C9.30467 9.21773 10.21 8.78233 10.21 8.1434V4.87791L14.3336 12.4177C13.9669 12.2354 13.317 11.9062 12.8148 11.6407C12.5229 11.4885 12.3317 10.9522 12.2761 10.7558L12.2205 10.5292C12.2205 10.4089 12.1892 10.2885 12.1528 10.1699C12.0218 9.79493 11.7987 9.46038 11.5046 9.19826Z" stroke="black" stroke-width="0.1" mask="url(#path-2-outside-1)"/>
</svg>
