<svg xmlns="http://www.w3.org/2000/svg" width="100%" height="100%" viewBox="0 0 20 20" fill="none">
    <path d="M10 20C15.5228 20 20 15.5228 20 10C20 4.47715 15.5228 0 10 0C4.47715 0 0 4.47715 0 10C0 15.5228 4.47715 20 10 20Z"
          fill="white"
          class="icon-background"
    />
    <path d="M10.0018 4.5C10.0018 4.5 10.0018 9.03765 10.0018 11.9441C8.59915 11.1807 6.41005 9.98657 6.41005 9.98657L10.0018 4.5Z"
          fill="black"
          class="icon-content"
    />
    <path d="M10.0018 4.5L13.5936 9.98657C13.5936 9.98657 11.4045 11.1807 10.0018 11.9441C10.0018 9.03765 10.0018 4.5 10.0018 4.5Z"
          fill="black"
          class="icon-content"
    />
    <path d="M10.0018 12.7934V15.5L6.41 10.8396L10.0018 12.7934Z" fill="black"
          class="icon-content"
    />
    <path d="M10.0018 15.5V12.7934L13.5937 10.8396L10.0018 15.5Z" fill="black"
          class="icon-content"
    />
</svg>
