<svg width="20" height="20" viewBox="0 0 20 20" fill="none" xmlns="http://www.w3.org/2000/svg">
<path fill-rule="evenodd" clip-rule="evenodd" d="M5.04848 7.93945C4.81976 9.06838 5.41758 10.2022 6.47725 10.6505C7.09431 10.9092 7.75802 10.8937 8.33226 10.6597C7.75802 10.8937 7.09431 10.9092 6.47725 10.6505C5.41759 10.2022 4.81976 9.06838 5.04848 7.93945C5.10472 7.66186 5.20711 7.40348 5.34668 7.17166C5.20711 7.40348 5.10472 7.66186 5.04848 7.93945ZM9.83685 6.73186V6.73187ZM9.15144 6.73187C9.15144 6.73187 9.15143 6.73186 9.15143 6.73186ZM9.76104 9.4036C10.1214 8.54739 9.98248 7.57093 9.41621 6.85187H9.95685V5.88001H7.42014C6.21218 5.87928 5.17091 6.73081 4.93087 7.91562C4.69083 9.10044 5.31858 10.2906 6.43085 10.7612C7.7259 11.3041 9.21694 10.6965 9.76104 9.4036ZM8.98554 8.41968C8.98542 9.28495 8.28456 9.98623 7.42025 9.98623C6.55586 9.98623 5.85506 9.28484 5.85506 8.41947C5.85506 7.55412 6.55584 6.85302 7.42014 6.85302C8.28426 6.85302 8.98397 7.5542 8.98554 8.41968ZM9.10462 8.47545C9.10523 8.45686 9.10554 8.4382 9.10554 8.41947C9.10385 7.48814 8.3508 6.73302 7.42014 6.73302C6.95481 6.73302 6.53354 6.92175 6.2286 7.22692C6.53354 6.92174 6.95481 6.73301 7.42014 6.73301C8.3508 6.73301 9.10386 7.48814 9.10554 8.41946C9.10554 8.4382 9.10523 8.45686 9.10462 8.47545ZM12.5824 9.98718C11.7185 9.98707 11.0175 9.28579 11.0175 8.4204C11.0175 7.55492 11.7181 6.85364 12.5828 6.85364C13.4474 6.85364 14.1479 7.55481 14.148 8.4202C14.1466 9.28537 13.4459 9.98573 12.5824 9.98718ZM12.0605 6.81615C12.2249 6.7626 12.4004 6.73364 12.5828 6.73364C12.6991 6.73364 12.8128 6.74544 12.9225 6.76791C12.8128 6.74544 12.6991 6.73364 12.5828 6.73364C12.4004 6.73364 12.2249 6.76259 12.0605 6.81615ZM12.5826 5.88011C11.1813 5.88011 10.0453 7.01716 10.0453 8.41958C10.0453 9.82197 11.1813 10.959 12.5826 10.959C13.984 10.959 15.12 9.82197 15.12 8.41958C15.12 7.01717 13.9841 5.88011 12.5826 5.88011ZM7.41999 15.1481C6.55607 15.1481 5.85495 14.4468 5.85495 13.5814C5.85495 12.7159 6.55585 12.0146 7.42014 12.0146C8.28437 12.0146 8.98533 12.7158 8.98543 13.5812C8.98398 14.446 8.28381 15.1471 7.41999 15.1481ZM7.42014 11.8946C8.3508 11.8946 9.10543 12.6497 9.10543 13.5814C9.10536 13.625 9.10364 13.6683 9.10032 13.7111C9.10364 13.6683 9.10537 13.625 9.10544 13.5814C9.10544 12.6497 8.3508 11.8946 7.42014 11.8946C7.27927 11.8946 7.14243 11.9119 7.01164 11.9445C7.14243 11.9119 7.27927 11.8946 7.42014 11.8946ZM7.42014 11.0411C6.01876 11.0411 4.8829 12.1781 4.8829 13.5805C4.8829 14.9829 6.01887 16.12 7.42025 16.12C8.82162 16.12 9.95759 14.9829 9.95759 13.5805C9.95759 12.1781 8.82161 11.0411 7.42014 11.0411ZM10.1688 8.28775C10.1665 8.33139 10.1653 8.37535 10.1653 8.41958C10.1653 9.75579 11.2476 10.839 12.5826 10.839C12.7495 10.839 12.9125 10.8221 13.0698 10.7899C12.9125 10.8221 12.7495 10.839 12.5827 10.839C11.2476 10.839 10.1653 9.75579 10.1653 8.41957C10.1653 8.37534 10.1665 8.33139 10.1688 8.28775ZM5.01166 13.3731C5.00586 13.4415 5.0029 13.5107 5.0029 13.5805C5.0029 13.9146 5.07055 14.2328 5.19288 14.5223C5.07055 14.2328 5.0029 13.9146 5.0029 13.5805C5.0029 13.5107 5.00586 13.4415 5.01166 13.3731Z" fill="white"/>
</svg>
