<svg width="20" height="20" viewBox="0 0 20 20" fill="none" xmlns="http://www.w3.org/2000/svg">
<path d="M7.42014 6.79301C8.31742 6.79301 9.04454 7.52127 9.04638 8.41946H9.04554C9.04554 9.31791 8.31783 10.0462 7.42025 10.0462C6.52268 10.0462 5.79506 9.31791 5.79506 8.41946C5.79506 7.52102 6.52266 6.79301 7.42014 6.79301ZM9.70575 9.38032C10.0741 8.50518 9.90815 7.50133 9.28851 6.79186H9.83686H9.89686V6.73186V6V5.94H9.83686H7.42014C6.24076 5.93927 5.22406 6.77067 4.98968 7.92753C4.7553 9.0844 5.3679 10.2463 6.45387 10.7058L6.45405 10.7058C7.71865 11.236 9.17451 10.6426 9.70575 9.38032ZM12.5827 10.0471L12.5663 10.0471C11.6766 10.0383 10.9575 9.31347 10.9575 8.4204C10.9575 7.52184 11.6849 6.79364 12.5828 6.79364C13.4806 6.79364 14.208 7.52178 14.208 8.4203C14.2065 9.3185 13.4792 10.0456 12.5827 10.0471ZM12.5828 5.94H12.558L12.5578 5.94023C11.2011 5.95358 10.1053 7.05855 10.1053 8.41957C10.1053 9.78888 11.2145 10.899 12.5827 10.899C13.9508 10.899 15.06 9.78888 15.06 8.41957C15.06 7.05026 13.9511 5.94 12.5828 5.94ZM7.42007 15.2081C6.52293 15.2081 5.79495 14.4799 5.79495 13.5814C5.79495 12.6828 6.52267 11.9546 7.42014 11.9546C8.31762 11.9546 9.04544 12.6828 9.04544 13.5814C9.04388 14.4792 8.31701 15.207 7.42007 15.2081ZM7.42014 11.1011C6.05195 11.1011 4.9429 12.2112 4.9429 13.5805C4.9429 14.9499 6.05206 16.06 7.42025 16.06C8.78844 16.06 9.89759 14.9499 9.89759 13.5805C9.89759 12.2112 8.78854 11.1011 7.42025 11.1011H7.42014Z" fill="white" stroke="white" stroke-width="0.12"/>
</svg>
