<svg width="100%" height="100%" viewBox="0 0 20 20" fill="none" xmlns="http://www.w3.org/2000/svg">
<path d="M10 20C15.5228 20 20 15.5228 20 10C20 4.47715 15.5228 0 10 0C4.47715 0 0 4.47715 0 10C0 15.5228 4.47715 20 10 20Z" fill="white"/>
<path fill-rule="evenodd" clip-rule="evenodd" d="M9.99812 0.779792C4.90897 0.782903 0.785772 4.91086 0.788884 10C0.791996 15.0891 4.91995 19.2123 10.0091 19.2092C15.0948 19.2063 19.2163 15.0837 19.2183 9.99817C19.2123 4.90976 15.0865 0.787297 9.99812 0.785283V0.779792ZM9.99812 20C4.47532 19.9991 -0.00115913 15.5211 -6.08331e-05 9.99817C0.00103747 4.4752 4.47898 -0.0010981 10.0018 2.02064e-07C15.5233 0.0010985 19.999 4.47666 20 9.99817C19.9939 15.5195 15.5195 19.994 9.99812 20Z" fill="white"/>
<path fill-rule="evenodd" clip-rule="evenodd" d="M14.8972 4.62907C12.1256 2.09343 7.87779 2.09343 5.10617 4.62907L4.58177 4.1164C7.64001 1.29453 12.3514 1.29453 15.4096 4.1164L14.8972 4.62907ZM15.3721 5.09729L15.8845 4.58462V4.57266C18.7051 7.63224 18.7051 12.3458 15.8845 15.4052L15.3721 14.8926C17.9064 12.1198 17.9064 7.87011 15.3721 5.09729ZM4.62792 14.8976C2.09664 12.1255 2.09664 7.87957 4.62792 5.10743L4.11548 4.59476C1.29484 7.65434 1.29484 12.3678 4.11548 15.4273L4.62792 14.8976ZM5.10106 15.371C7.87268 17.9066 12.1205 17.9066 14.8921 15.371L15.4165 15.8836C12.3582 18.7055 7.64686 18.7055 4.58862 15.8836L5.10106 15.371Z" fill="#697784"/>
<path fill-rule="evenodd" clip-rule="evenodd" d="M11.2233 8.64136C11.2233 9.58377 9.75 9.46911 9.28194 9.46911V7.8089C9.75 7.8089 11.2233 7.66126 11.2233 8.64136ZM11.6081 11.2188C11.6081 12.2492 9.84267 12.1314 9.28037 12.1314V10.3031C9.84267 10.3047 11.6081 10.1429 11.6081 11.2188ZM12.7704 8.26911C12.6762 7.28586 11.828 6.95602 10.7552 6.8555V5.5H9.92592V6.8288C9.70759 6.8288 9.48456 6.8288 9.26309 6.83665V5.5H8.43848V6.86335H7.91073H6.75785V7.75079C6.75785 7.75079 7.37042 7.73979 7.361 7.75079C7.59063 7.7255 7.7989 7.88665 7.8322 8.11518V11.8487C7.82215 12.0106 7.68283 12.1336 7.52089 12.1237C7.51995 12.1237 7.51901 12.1237 7.51806 12.1236C7.52906 12.133 6.91492 12.1236 6.91492 12.1236L6.75 13.1147H7.83063H8.42435V14.5H9.25367V13.1351H9.9165V14.4937H10.7474V13.1241C12.1484 13.0393 13.1254 12.6937 13.2479 11.3822C13.3469 10.3267 12.8505 9.8555 12.0573 9.66544C12.5395 9.42042 12.8427 8.98848 12.7704 8.26911Z" fill="#E7983D"/>
</svg>
