<?xml version="1.0" encoding="UTF-8"?>
<svg width="100%" height="100%" viewBox="0 0 28 28" xmlns="http://www.w3.org/2000/svg">
  <defs>
    <linearGradient x1="50%" y1="50%" x2="15.315%" y2="85.486%" id="linearGradient-1">
      <stop stop-color="#2059EB" offset="0%"/>
      <stop stop-color="#1C54E6" offset="100%"/>
    </linearGradient>
  </defs>
  <g fill="none" fill-rule="evenodd">
    <path
      d="M14,28 C6.2680135,28 0,21.7319865 0,14 C0,6.2680135 6.2680135,0 14,0 C21.7319865,0 28,6.2680135 28,14 C28,21.7319865 21.7319865,28 14,28 Z"
      fill="url(#linearGradient-1)" fill-rule="nonzero"/>
    <path
      d="M14,22.2 C9.47126505,22.2 5.8,18.5287349 5.8,14 C5.8,9.47126505 9.47126505,5.8 14,5.8 C18.5287349,5.8 22.2,9.47126505 22.2,14 C22.2,18.5287349 18.5287349,22.2 14,22.2 Z M11.9937709,11.4 C11.6658403,11.4 11.4,11.6658403 11.4,11.9937709 L11.4,16.0062291 C11.4,16.3341597 11.6658403,16.6 11.9937709,16.6 L16.0062291,16.6 C16.3341597,16.6 16.6,16.3341597 16.6,16.0062291 L16.6,11.9937709 C16.6,11.6658403 16.3341597,11.4 16.0062291,11.4 L11.9937709,11.4 Z"
      id="Combined-Shape" fill="#FFF" fill-rule="nonzero"/>
  </g>
</svg>
