<?xml version="1.0" encoding="UTF-8"?>
<svg width="100%" height="100%" viewBox="0 0 28 28" xmlns="http://www.w3.org/2000/svg">
  <g id="Artboard" fill-rule="evenodd">
    <path
      d="M4,0 L24,0 C26.209139,-4.05812251e-16 28,1.790861 28,4 L28,24 C28,26.209139 26.209139,28 24,28 L4,28 C1.790861,28 2.705415e-16,26.209139 0,24 L0,4 C-2.705415e-16,1.790861 1.790861,4.05812251e-16 4,0 Z M13.9748629,22.7045455 L19.0524754,15.4318182 L13.9748629,18.479597 L8.89999962,15.4318182 L13.9748629,22.7045455 Z M13.9762375,16.8863636 L19.0524754,13.8302075 L13.9762375,5.25 L8.89999962,13.8302075 L13.9762375,16.8863636 Z"
      id="Combined-Shape" fill="#5B5B5C"/>
  </g>
</svg>
