<?xml version="1.0" encoding="UTF-8"?>
<svg width="100%" height="100%" viewBox="0 0 28 28" xmlns="http://www.w3.org/2000/svg">
  <defs>
    <linearGradient x1="97.156%" y1="3.145%" x2="-.033%" y2="99.578%" id="linearGradient-1">
      <stop stop-color="#11C4D1" offset="0%"/>
      <stop stop-color="#0062AD" offset="100%"/>
    </linearGradient>
  </defs>
  <g id="Icons/Navigation/imToken" fill="none" fill-rule="evenodd">
    <path
      d="M28,19.1644444 C28,19.1644444 28,22.0888889 27.6875,23.3333333 C27.375,24.5985185 26.7916667,25.4696296 26.1458333,26.1333333 C25.5,26.7762963 24.6458333,27.3777778 23.3333333,27.6888889 C22.0208333,28 19.1666667,28 19.1666667,28 L8.83333333,28 C8.83333333,28 5.91666667,28 4.64583333,27.6888889 C3.375,27.3777778 2.5,26.797037 1.85416667,26.1333333 C1.20833333,25.4903704 0.604166667,24.6192593 0.3125,23.3125926 C0.0208333333,22.0059259 6.21724894e-14,19.1644444 6.21724894e-14,19.1644444 L6.21724894e-14,8.83555556 C6.21724894e-14,8.83555556 6.21724894e-14,5.91111111 0.3125,4.66666667 C0.625,3.40148148 1.20833333,2.53037037 1.85416667,1.86666667 C2.5,1.2237037 3.35416667,0.622222222 4.66666667,0.311111111 C5.97916667,-2.84217094e-14 8.83333333,-2.84217094e-14 8.83333333,-2.84217094e-14 L19.1666667,-2.84217094e-14 C19.1666667,-2.84217094e-14 22.0833333,-2.84217094e-14 23.3541667,0.311111111 C24.625,0.622222222 25.5,1.20296296 26.1458333,1.86666667 C26.7916667,2.50962963 27.3958333,3.38074074 27.6875,4.68740741 C28,5.99407407 28,8.83555556 28,8.83555556 L28,19.1644444 Z M23.6041667,8.56592593 C23.6041667,8.44148148 23.5208333,8.33777778 23.3958333,8.2962963 C23.375,8.2962963 23.3333333,8.27555556 23.3125,8.27555556 C19.875,7.61185185 16.2291667,9.78962963 15.2291667,10.7022222 C15.1458333,10.7644444 15.0833333,10.8474074 15.0208333,10.9096296 C14.9583333,10.9718519 14.8958333,11.0548148 14.8333333,11.1377778 C14.7916667,11.1792593 14.7708333,11.2414815 14.75,11.282963 C14.6875,11.4074074 14.6666667,11.5318519 14.6666667,11.6562963 C14.5416667,14.1037037 12.9375,15.8251852 10.625,16.0325926 C8.47916667,16.2192593 6.85416667,14.9333333 6.70833333,13.2948148 C6.5625,11.6562963 7.625,10.9925926 8.20833333,10.9511111 C8.6875,10.9096296 9.5625,11.0133333 9.64583333,11.9881481 C9.70833333,12.5274074 9.5,12.5896296 9.54166667,13.1081481 C9.60416667,13.7096296 10.1875,13.9792593 10.6666667,13.9377778 C11.2708333,13.8962963 12.1458333,13.2740741 12.0208333,11.9466667 C11.8958333,10.557037 10.4583333,9.4162963 8.72916667,9.56148148 C7.04166667,9.70666667 4.91666667,11.1377778 5.20833333,14.4562963 C5.5625,18.48 9.70833333,21.0933333 14.125,20.6992593 C18.875,20.2844444 24.1875,16.5096296 23.6041667,8.56592593 Z"
      id="Combined-Shape" fill="url(#linearGradient-1)"/>
  </g>
</svg>
