<svg width="100%" height="100%" viewBox="0 0 26 26" xmlns="http://www.w3.org/2000/svg">
    <g id="Symbols" fill="none" fill-rule="evenodd">
        <g id="Icons/Clients/Full/Ledger" transform="translate(-26 -8)" fill="#969697">
            <path class="provider-icon"
                  d="M47.8895613,8 C50.1512859,8 52,9.9210857 51.9934443,12.175421 L51.9934617,24.0482533 L35.892587,24.0482533 L35.892587,8 L47.8895613,8 Z M32.2082703,8 L32.2082703,14.1879869 L26,14.1879869 L26,12.1819553 C26,9.83613973 27.9339385,8 30.1956631,8 L32.2082703,8 Z M26,17.9452124 L32.2082703,17.9452124 L32.2082703,24.1331993 L26,24.1331993 L26,17.9452124 Z M45.7917297,33.9934657 L45.7917297,27.8120131 L52,27.8120131 L52,29.8115104 C52,32.157326 50.0660615,33.9934657 47.8043369,33.9934657 L45.7917297,33.9934657 Z M35.892587,27.8120131 L42.1008573,27.8120131 L42.1008573,34 L35.892587,34 L35.892587,27.8120131 Z M26,27.8120131 L32.2082703,27.8120131 L32.2082703,34 L30.1956631,34 C27.8421583,34 26,32.07238 26,29.8180447 L26,27.8120131 Z"
                  id="Combined-Shape"/>
        </g>
    </g>
</svg>