<svg width="100%" height="100%" viewBox="0 0 24 24" fill="none" xmlns="http://www.w3.org/2000/svg">
    <path fill-rule="evenodd" clip-rule="evenodd"
          d="M18.5645 2.40002C20.2347 2.40002 21.5999 3.81867 21.5951 5.48341L21.5951 14.251H9.7052V2.40002H18.5645ZM6.98447 2.40002V6.96961H2.3999V5.48824C2.3999 3.75594 3.82804 2.40002 5.49824 2.40002H6.98447ZM2.3999 9.74418H6.98447V14.3138H2.3999V9.74418ZM17.0153 21.5952V17.0304H21.5999V18.507C21.5999 20.2393 20.1718 21.5952 18.5016 21.5952H17.0153ZM9.7052 17.0304H14.2898V21.6H9.7052V17.0304ZM2.3999 17.0304H6.98447V21.6H5.49824C3.76027 21.6 2.3999 20.1765 2.3999 18.5118V17.0304Z"
          fill="#828288"/>
</svg>
