<?xml version="1.0" encoding="UTF-8"?>
<svg width="100%" height="100%" viewBox="0 0 28 28" xmlns="http://www.w3.org/2000/svg">
  <g id="Icons/Navigation/Metamask" fill="none" fill-rule="evenodd">
    <path
      d="M13.9151515,5.47350993 L17.6484848,5.47350993 L25.9636364,1.5 L27.4909091,5.63907285 L26.8121212,9.94370861 L27.4909091,10.4403974 L26.6424242,11.102649 L27.3212121,11.5993377 L26.4727273,12.2615894 L26.9818182,12.5927152 L25.7939394,14.0827815 L28,20.0430464 L26.4727273,26.5 L19.8545455,24.1821192 L18.4969697,24.8443709 L16.030747,25.1958653 L13.9151515,25.1958653 L11.969253,25.1958653 L9.5030303,24.8443709 L8.14545455,24.1821192 L1.52727273,26.5 L0,20.0430464 L2.20606061,14.0827815 L1.01818182,12.5927152 L1.52727273,12.2615894 L0.678787879,11.5993377 L1.35757576,11.102649 L0.509090909,10.4403974 L1.18787879,9.94370861 L0.509090909,5.63907285 L2.03636364,1.5 L10.3515152,5.47350993 L13.9151515,5.47350993 Z"
      id="Combined-Shape" fill="#FF7E00"/>
    <path
      d="M13.5757576,19.7119205 L15.1030303,19.7119205 L15.7818182,20.3741722 L19.8545455,24.1821192 L18.4969697,24.8443709 L16.030747,25.1958653 L13.5757576,25.1958653 L11.969253,25.1958653 L9.5030303,24.8443709 L8.14545455,24.1821192 L12.2181818,20.3741722 L12.8969697,19.7119205 L13.5757576,19.7119205 Z"
      id="Combined-Shape" fill="#DBC0B1"/>
    <polygon id="left_bottom" fill="#F36F00"
             points="14.4242424 25.1958653 11.969253 25.1958653 9.5030303 24.8443709 8.14545455 24.1821192 1.52727273 26.5 0 20.0430464 5.26060606 19.3807947 8.82424242 19.2152318 12.2181818 20.3741722 12.8969697 19.7119205 14.4242424 19.7119205"
    />
    <polygon id="right_bottom" fill="#F36F00" transform="matrix(-1 0 0 1 41.576 0)"
             points="28 25.1958653 25.5450106 25.1958653 23.0787879 24.8443709 21.7212121 24.1821192 15.1030303 26.5 13.5757576 20.0430464 18.8363636 19.3807947 22.4 19.2152318 25.7939394 20.3741722 26.4727273 19.7119205 28 19.7119205"
    />
    <path
      d="M13.5757576,19.7119205 L15.1030303,19.7119205 L15.7818182,20.3741722 C15.7818182,20.3741722 16.0187353,23.9942377 16.1690236,24.1347554 C16.319312,24.275273 19.8545455,24.1821192 19.8545455,24.1821192 L18.4969697,24.8443709 L16.030747,25.1958653 L13.5757576,25.1958653 L11.969253,25.1958653 L9.5030303,24.8443709 L8.14545455,24.1821192 C8.14545455,24.1821192 11.680688,24.275273 11.8309764,24.1347554 C11.9812647,23.9942377 12.2181818,20.3741722 12.2181818,20.3741722 L12.8969697,19.7119205 L13.5757576,19.7119205 Z"
      id="Combined-Shape" fill="#C3AC9C"/>
    <path
      d="M13.5757576,22.5264901 L12.3826392,22.5264901 L11.8787879,23.1887417 L12.2181818,20.3741722 L12.8969697,19.7119205 L13.5757576,19.7119205 L15.1030303,19.7119205 L15.7818182,20.3741722 L16.1212121,23.1887417 L15.6173608,22.5264901 L13.5757576,22.5264901 Z"
      id="Combined-Shape" fill="#161616"/>
    <polygon id="1-copy" fill="#F16F00" transform="matrix(-1 0 0 1 42.764 0)"
             points="22.7393939 12.5927152 16.969697 14.0827815 15.7818182 12.5927152 16.2909091 12.2615894 15.4424242 11.5993377 16.1212121 11.102649 15.2727273 10.4403974 15.9515152 9.94370861 15.2727273 5.63907285 16.8 1.5 25.1151515 5.47350993 26.8121212 9.11589404 27.4909091 19.2152318 26.8121212 17.5596026 23.5878788 16.897351 23.5878788 18.718543 21.2121212 14.4139073"
    />
    <polygon id="1-copy" fill="#F16F00"
             points="7.97575758 12.5927152 2.20606061 14.0827815 1.01818182 12.5927152 1.52727273 12.2615894 0.678787879 11.5993377 1.35757576 11.102649 0.509090909 10.4403974 1.18787879 9.94370861 0.509090909 5.63907285 2.03636364 1.5 10.3515152 5.47350993 12.0484848 9.11589404 12.7272727 19.2152318 12.0484848 17.5596026 8.82424242 16.897351 8.82424242 18.718543 6.44848485 14.4139073"
    />
    <polygon id="1-copy-2" fill="#DB5A00"
             points="12.3878788 14.4139073 12.0484848 17.5596026 8.82424242 16.897351 6.44848485 14.4139073"
    />
    <polygon id="1-copy-2" fill="#DB5A00" transform="matrix(-1 0 0 1 37.164 0)"
             points="21.5515152 14.4139073 21.2121212 17.5596026 17.9878788 16.897351 15.6121212 14.4139073"
    />
    <polygon id="1-copy-3" fill-opacity="0.8" fill="#1F3449" transform="matrix(-1 0 0 1 35.467 0)"
             points="18.3272727 15.7384106 19.5151515 17.5596026 15.9515152 16.897351"
    />
    <polygon id="2" fill="#7E3A06" transform="matrix(-1 0 0 1 43.442 0)"
             points="17.6484848 14.0827815 16.4606061 12.5927152 16.969697 12.2615894 16.1212121 11.5993377 16.8 11.102649 15.9515152 10.4403974 16.630303 9.94370861 15.9515152 5.63907285 17.4787879 1.5 27.4909091 9.11589404 23.4181818 12.5927152"
    />
    <polygon id="1-copy-5" fill="#DB5A00" transform="matrix(-1 0 0 1 41.915 0)"
             points="22.0606061 24.1821192 19.1757576 19.3807947 22.7393939 19.2152318"
    />
    <polygon id="1-copy-5" fill="#DB5A00"
             points="8.14545455 24.1821192 5.26060606 19.3807947 8.82424242 19.2152318"
    />
    <polygon id="1-copy-3" fill-opacity="0.8" fill="#1F3449"
             points="10.8606061 15.7384106 12.0484848 17.5596026 8.48484848 16.897351"
    />
    <polygon id="2" fill="#7E3A06"
             points="2.20606061 14.0827815 1.01818182 12.5927152 1.52727273 12.2615894 0.678787879 11.5993377 1.35757576 11.102649 0.509090909 10.4403974 1.18787879 9.94370861 0.509090909 5.63907285 2.03636364 1.5 12.0484848 9.11589404 7.97575758 12.5927152"
    />
  </g>
</svg>
