<svg width="100%" height="100%" viewBox="0 0 20 22" fill="none" xmlns="http://www.w3.org/2000/svg">
    <path fill-rule="evenodd" clip-rule="evenodd"
          d="M12.6061 4.92008H9.93939H7.39394L1.45455 2.01166L0.363636 5.04127L0.848485 8.19206L0.363636 8.55561L0.969697 9.04035L0.484848 9.4039L1.09091 9.88864L0.727273 10.131L1.57576 11.2217L0 15.5843L1.09091 20.3105L5.81818 18.6139L6.78788 19.0986L8.54947 19.3559H9.93939H11.4505L13.2121 19.0986L14.1818 18.6139L18.9091 20.3105L20 15.5843L18.4242 11.2217L19.2727 10.131L18.9091 9.88864L19.5152 9.4039L19.0303 9.04035L19.6364 8.55561L19.1515 8.19206L19.6364 5.04127L18.5455 2.01166L12.6061 4.92008ZM8.84474 17.4021H9.69697H11.1553L11.5152 17.8868L11.2727 15.8267L10.7879 15.3419H9.69697H9.21212L8.72727 15.8267L8.48485 17.8868L8.84474 17.4021ZM7.75757 12.4335L8.60606 13.7665L6.0606 13.2818L7.75757 12.4335ZM11.3939 13.7665L12.2424 12.4335L13.9394 13.2818L11.3939 13.7665Z"
          fill="white"/>
</svg>
