<svg width="100%" height="100%" viewBox="0 0 20 20" fill="none" xmlns="http://www.w3.org/2000/svg">
    <path d="M12.3087 0L0 7.69135L1.61853 10.2815L5.03209 8.16592V6.51021H7.70371L13.9556 2.63559L12.3087 0ZM14.386 3.32434L9.24539 6.51021H15.0018L15.9929 5.896L14.386 3.32434ZM16.4232 6.58467L15.1211 7.39169V8.88539H12.7109L9.36784 10.9573H14.8216L17.9457 9.02114L16.4232 6.58467ZM5.4129 8.88539L2.04891 10.9702L3.65585 13.5419L5.04178 12.683V10.9573H7.8262L11.1693 8.88539H5.4129ZM18.3761 9.70986L15.1308 11.7211V13.3325H12.5309L6.03901 17.3558L7.69133 20L20 12.3087L18.3761 9.70986ZM5.53548 13.3325L4.08624 14.2306L5.60867 16.667L10.9892 13.3325H5.53548Z"
          fill="white"/>
</svg>
