<?xml version="1.0" encoding="UTF-8"?>
<svg width="100%" height="100%" viewBox="0 0 35 36" xmlns="http://www.w3.org/2000/svg">
  <g fill="none" fill-rule="evenodd">
    <g transform="translate(-26 -3)" fill="#333333"
       fill-rule="nonzero" stroke="#FFF" stroke-width="0.5">
      <g transform="translate(26.5 4)">
        <path
          d="M20.9247419,0 L0,13.0752867 L2.75149533,17.4785579 L8.55454814,13.8820712 L8.55454814,11.0673514 L13.0963058,11.0673514 L23.7244751,4.48049639 L20.9247419,0 Z M24.45613,5.65138628 L15.7171697,11.0673514 L25.5031273,11.0673514 L27.1879257,10.0231982 L24.45613,5.65138628 Z M27.9195055,11.1939381 L25.7058904,12.5658688 L25.7058904,15.1051688 L21.6086088,15.1051688 L15.925326,18.6274261 L25.196698,18.6274261 L30.5077117,15.3359463 L27.9195055,11.1939381 Z M9.20193679,15.1051688 L3.48315006,18.6493726 L6.21494567,23.0211845 L8.57102695,21.5610176 L8.57102695,18.6274261 L13.3045369,18.6274261 L18.9878944,15.1051688 L9.20193679,15.1051688 Z M31.2393667,16.506761 L25.7223688,19.9259512 L25.7223688,22.6651684 L21.3024789,22.6651684 L10.2663119,29.5048225 L13.0752579,34 L34,20.924788 L31.2393667,16.506761 Z M9.41031782,22.6651684 L6.94660063,24.1920744 L9.53473207,28.3339326 L18.681615,22.6651684 L9.41031782,22.6651684 Z"/>
      </g>
    </g>
  </g>
</svg>
