<svg width="100%" height="100%" viewBox="0 0 20 20" fill="none" xmlns="http://www.w3.org/2000/svg">
    <path fill-rule="evenodd" clip-rule="evenodd"
          d="M0 10C0 4.47721 4.47714 0 10 0C15.5229 0 20 4.47721 20 10C20 15.5229 15.5229 20 10 20C4.47714 20 0 15.5229 0 10ZM12.0862 9.76314C11.3097 9.80611 10.6782 9.74083 10.0466 9.67552C9.41505 9.61024 8.78349 9.54497 8.00698 9.58794C7.63433 9.60855 7.23918 9.6607 6.86375 9.74806C7.0927 6.99279 9.12555 4.58213 11.89 4.42914C13.5863 4.33518 15.2817 5.34005 15.3739 6.97111C15.4643 8.57418 14.1899 9.64665 12.0862 9.76314ZM7.92788 15.5714C6.32077 15.6575 4.7146 14.7364 4.62737 13.2412C4.54157 11.7717 5.74895 10.7887 7.74187 10.6819C8.47746 10.6425 9.07583 10.7023 9.67415 10.7622C10.2725 10.822 10.8709 10.8819 11.6065 10.8425C11.9596 10.8236 12.3339 10.7757 12.6896 10.6957C12.4727 13.2213 10.5468 15.4311 7.92788 15.5714Z"
          fill="white"/>
</svg>
