<?xml version="1.0" encoding="UTF-8"?>
<svg width="100%" height="100%" viewBox="0 0 28 28" xmlns="http://www.w3.org/2000/svg">
  <g id="Icons/Navigation/Status" fill="none" fill-rule="evenodd">
    <path
      d="M14,0 C21.732,0 28,6.2681 28,14 C28,21.732 21.732,28 14,28 C6.268,28 0,21.732 0,14 C0,6.2681 6.268,0 14,0 Z M14.0517903,13.6083716 C14.8140174,13.6872024 15.5762445,13.7659793 16.513361,13.7141254 C19.052347,13.5735331 20.5903544,12.2791793 20.4812247,10.3444331 C20.3699807,8.37592544 18.3238401,7.16314851 16.276561,7.27654851 C12.9401639,7.46118698 10.4867251,10.3706024 10.2104042,13.6959254 C10.6635119,13.5904947 11.1404188,13.5275485 11.5901654,13.5026716 C12.527336,13.4508177 13.2895632,13.5295947 14.0517903,13.6083716 Z M7.51132872,17.9118101 C7.61660931,19.7163024 9.55508403,20.8280101 11.4946972,20.7240331 C14.6554459,20.5547408 16.9798591,17.8877947 17.2415426,14.8395639 C16.8122884,14.9362177 16.360536,14.9939947 15.9344262,15.0167716 C15.0465888,15.0643177 14.3244247,14.9921101 13.6022606,14.9198485 C12.8801507,14.8476408 12.1579866,14.7754331 11.2702034,14.8229793 C8.86495949,14.9518331 7.40778294,16.1382793 7.51132872,17.9118101 Z"
      id="Combined-Shape" fill="#4360DF"/>
  </g>
</svg>
