<svg width="100%" height="100%" viewBox="0 0 24 34" xmlns="http://www.w3.org/2000/svg">
    <g id="Symbols" fill="none" fill-rule="evenodd">
        <g id="Icons/Clients/Full/Trezor" transform="translate(-28 -4)" fill="#969697"
           fill-rule="nonzero">
            <path class="provider-icon"
                  d="M40.0193081,4 C35.23572,4 31.3644409,7.77464009 31.3644409,12.4388151 L31.3644409,15.6016058 C29.684634,15.8981174 28,16.2934662 28,16.8064784 L28,33.3122924 C28,33.3122924 28,33.7688261 28.5261464,33.9853267 C30.4328238,34.7383721 37.9340306,37.3269657 39.6572808,37.9199889 C39.8793242,38 39.9420756,38 40,38 C40.0820595,38 40.1206758,38 40.3427192,37.9199889 C42.0659694,37.3269657 49.5864843,34.7383721 51.4931617,33.9853267 C51.9806919,33.7876523 52,33.3311185 52,33.3311185 L52,16.8064784 C52,16.2934662 50.3395012,15.8792913 48.6548673,15.6016058 L48.6548673,12.4388151 C48.6790024,7.77464009 44.7835881,4 40.0193081,4 Z M40.0193081,8.03349945 C42.8382944,8.03349945 44.5422365,9.69490587 44.5422365,12.4435216 L44.5422365,15.1921373 C41.380531,14.9756368 38.6822204,14.9756368 35.5012068,15.1921373 L35.5012068,12.4435216 C35.5012068,9.69019934 37.2051488,8.03349945 40.0193081,8.03349945 Z M40,19.2397564 C43.9340306,19.2397564 47.23572,19.536268 47.23572,20.0681063 L47.23572,30.3660022 C47.23572,30.5260244 47.2164119,30.5448505 47.071601,30.6013289 C46.9316171,30.6625138 40.3620274,32.9734219 40.3620274,32.9734219 C40.3620274,32.9734219 40.0965406,33.053433 40.0193081,33.053433 C39.9372486,33.053433 39.6765889,32.9545958 39.6765889,32.9545958 C39.6765889,32.9545958 33.1069992,30.6436877 32.9670153,30.5825028 C32.8270314,30.5213178 32.8028962,30.5024917 32.8028962,30.3471761 L32.8028962,20.0492802 C32.76428,19.5174419 36.0659694,19.2397564 40,19.2397564 Z"
                  id="path7"/>
        </g>
    </g>
</svg>