<?xml version="1.0" encoding="UTF-8"?>
<svg width="100%" height="100%" viewBox="0 0 28 28" xmlns="http://www.w3.org/2000/svg">
  <g id="Icons/Navigation/Trust" fill="none" fill-rule="evenodd">
    <g id="Group">
      <path
        d="M7.6916556,-3.10752092e-16 L20.3083444,3.10752092e-16 C22.9829006,-1.80555915e-16 23.9527593,0.278476833 24.9305371,0.801398111 C25.9083149,1.32431939 26.6756806,2.09168511 27.1986019,3.06946289 C27.7215232,4.04724067 28,5.01709938 28,7.6916556 L28,20.3083444 C28,22.9829006 27.7215232,23.9527593 27.1986019,24.9305371 C26.6756806,25.9083149 25.9083149,26.6756806 24.9305371,27.1986019 C23.9527593,27.7215232 22.9829006,28 20.3083444,28 L7.6916556,28 C5.01709938,28 4.04724067,27.7215232 3.06946289,27.1986019 C2.09168511,26.6756806 1.32431939,25.9083149 0.801398111,24.9305371 C0.278476833,23.9527593 1.2037061e-16,22.9829006 -2.07168062e-16,20.3083444 L2.07168062e-16,7.6916556 C-1.2037061e-16,5.01709938 0.278476833,4.04724067 0.801398111,3.06946289 C1.32431939,2.09168511 2.09168511,1.32431939 3.06946289,0.801398111 C4.04724067,0.278476833 5.01709938,1.80555915e-16 7.6916556,-3.10752092e-16 Z"
        id="Rectangle" fill="#3375BB"/>
      <path
        d="M13.9955812,6.44980207 L14.3691488,5.96247578 C14.1492418,5.79028585 13.8419205,5.79028585 13.6220135,5.96247578 L13.9955812,6.44980207 Z M20.3900226,8.34849363 L20.99992,8.35852193 C21.0025659,8.19330903 20.9395035,8.03392591 20.8248446,7.91614464 C20.7101856,7.79835445 20.5535439,7.73202505 20.3900226,7.73202505 L20.3900226,8.34849363 Z M13.9955812,21.5501936 L13.6576636,22.0633752 C13.8623563,22.2010972 14.128806,22.2010972 14.3334899,22.0633752 L13.9955812,21.5501936 Z M7.60995915,8.34849363 L7.60995915,7.73202505 C7.44646837,7.73202505 7.28982132,7.79835445 7.17515972,7.91614464 C7.06049813,8.03392591 6.99742159,8.19330903 7.0000808,8.35852193 L7.60995915,8.34849363 Z M13.6220135,6.9371285 C16.3901716,9.10463637 19.5575986,8.96496221 20.3900226,8.96496221 L20.3900226,7.73202505 C19.5290221,7.73202505 16.7694457,7.84194413 14.3691488,5.96247578 L13.6220135,6.9371285 Z M19.7801252,8.33846533 C19.7341734,11.2019417 19.6143107,13.2217216 19.38464,14.7182292 C19.1581445,16.1988253 18.8341888,17.0862184 18.4172712,17.7094884 C17.9947971,18.3570046 17.4648964,18.741289 16.679659,19.2154271 C15.8875685,19.6949135 14.8870457,20.2113933 13.6576636,21.0370121 L14.3334899,22.0633752 C15.5031258,21.2755519 16.4783002,20.7736021 17.3060496,20.2733459 C18.1405904,19.7678304 18.8746722,19.2110592 19.4279458,18.4000594 C19.9866877,17.5647243 20.3501565,16.4759629 20.5902347,14.9066275 C20.8273142,13.3531413 20.9532626,11.2490613 20.99992,8.35852193 L19.7801252,8.33846533 Z M14.3334899,21.0370121 C13.1041696,20.2113933 12.1043171,19.6950027 11.3131527,19.2156054 C10.5288061,18.7415565 10.0000343,18.3574503 9.57862738,17.7100232 C9.16266236,17.0868424 8.83972984,16.1993601 8.61397518,14.7185501 C8.38515032,13.2219622 8.26578065,11.2020308 8.21983769,8.33846533 L7.0000808,8.35852193 C7.04674699,11.2489722 7.17213008,13.3529006 7.40828253,14.9063066 C7.64750176,16.4754281 8.00976133,17.5641895 8.56730017,18.3995246 C9.11939183,19.2106135 9.85241531,19.767563 10.6862505,20.2732567 C11.513259,20.7735129 12.4879747,21.2755519 13.6576636,22.0633752 L14.3334899,21.0370121 Z M7.60995915,8.96496221 C8.4337419,8.96496221 11.6010525,9.10458289 14.3691488,6.9371285 L13.6220135,5.96247578 C11.2216372,7.84199762 8.46196123,7.73202505 7.60995915,7.73202505 L7.60995915,8.96496221 Z"
        id="path1_stroke" fill="#FFF" fill-rule="nonzero"/>
    </g>
  </g>
</svg>
