<svg width="100%" height="100%" viewBox="0 0 21 20" fill="none" xmlns="http://www.w3.org/2000/svg">
    <path fill-rule="evenodd" clip-rule="evenodd"
          d="M6.78008 0L13.9607 0C16.1895 0 16.9977 0.232064 17.8125 0.667832C18.6273 1.1036 19.2668 1.74307 19.7025 2.55789C20.1383 3.3727 20.3704 4.18092 20.3704 6.40971V13.5903C20.3704 15.8191 20.1383 16.6273 19.7025 17.4421C19.2668 18.2569 18.6273 18.8964 17.8125 19.3322C16.9977 19.7679 16.1895 20 13.9607 20H6.78008C4.55129 20 3.74307 19.7679 2.92826 19.3322C2.11344 18.8964 1.47397 18.2569 1.0382 17.4421C0.602435 16.6273 0.370371 15.8191 0.370371 13.5903L0.370371 6.40971C0.370371 4.18092 0.602435 3.3727 1.0382 2.55789C1.47397 1.74307 2.11344 1.1036 2.92826 0.667832C3.74307 0.232064 4.55129 0 6.78008 0Z"
          fill="white"/>
    <path d="M10.3493 4.45292L10.6135 4.09488C10.458 3.96837 10.2405 3.96837 10.085 4.09488L10.3493 4.45292ZM14.8732 5.84787L15.3047 5.85524C15.3066 5.73386 15.262 5.61676 15.1808 5.53023C15.0997 5.44369 14.9889 5.39496 14.8732 5.39496V5.84787ZM10.3493 15.5471L10.1102 15.9241C10.255 16.0253 10.4435 16.0253 10.5883 15.9241L10.3493 15.5471ZM5.83154 5.84787V5.39496C5.71587 5.39496 5.60505 5.44369 5.52392 5.53023C5.4428 5.61676 5.39818 5.73386 5.40006 5.85524L5.83154 5.84787ZM10.085 4.81095C12.0434 6.40341 14.2843 6.30079 14.8732 6.30079V5.39496C14.2641 5.39496 12.3117 5.47571 10.6135 4.09488L10.085 4.81095ZM14.4417 5.84051C14.4092 7.94428 14.3244 9.4282 14.1619 10.5277C14.0017 11.6155 13.7725 12.2674 13.4775 12.7253C13.1786 13.2011 12.8037 13.4834 12.2482 13.8317C11.6878 14.184 10.98 14.5635 10.1102 15.17L10.5883 15.9241C11.4158 15.3453 12.1057 14.9765 12.6914 14.609C13.2818 14.2376 13.8011 13.8285 14.1926 13.2327C14.5879 12.619 14.845 11.8191 15.0149 10.6661C15.1826 9.52476 15.2717 7.9789 15.3047 5.85524L14.4417 5.84051ZM10.5883 15.17C9.7186 14.5635 9.01122 14.1841 8.45148 13.8319C7.89657 13.4836 7.52248 13.2014 7.22434 12.7257C6.93005 12.2679 6.70158 11.6159 6.54186 10.5279C6.37997 9.42838 6.29552 7.94435 6.26302 5.84051L5.40006 5.85524C5.43307 7.97884 5.52178 9.52458 5.68885 10.6659C5.8581 11.8187 6.11439 12.6186 6.50884 13.2323C6.89944 13.8282 7.41804 14.2374 8.00796 14.6089C8.59306 14.9765 9.28265 15.3453 10.1102 15.9241L10.5883 15.17ZM5.83154 6.30079C6.41435 6.30079 8.65517 6.40337 10.6135 4.81095L10.085 4.09488C8.38674 5.47575 6.43431 5.39496 5.83154 5.39496V6.30079Z"
          fill="black"/>
</svg>
