<?xml version="1.0" encoding="UTF-8"?>
<svg width="142" height="30" viewBox="0 0 142 30" xmlns="http://www.w3.org/2000/svg">
  <g id="Icons/Clients/Origin/Metamask" fill="none" fill-rule="evenodd">
    <path
      d="M13.9151515,5.47350993 L17.6484848,5.47350993 L25.9636364,1.5 L27.4909091,5.63907285 L26.8121212,9.94370861 L27.4909091,10.4403974 L26.6424242,11.102649 L27.3212121,11.5993377 L26.4727273,12.2615894 L26.9818182,12.5927152 L25.7939394,14.0827815 L28,20.0430464 L26.4727273,26.5 L19.8545455,24.1821192 L18.4969697,24.8443709 L16.030747,25.1958653 L13.9151515,25.1958653 L11.969253,25.1958653 L9.5030303,24.8443709 L8.14545455,24.1821192 L1.52727273,26.5 L0,20.0430464 L2.20606061,14.0827815 L1.01818182,12.5927152 L1.52727273,12.2615894 L0.678787879,11.5993377 L1.35757576,11.102649 L0.509090909,10.4403974 L1.18787879,9.94370861 L0.509090909,5.63907285 L2.03636364,1.5 L10.3515152,5.47350993 L13.9151515,5.47350993 Z"
      id="Combined-Shape" fill="#FF7E00"/>
    <path
      d="M13.5757576,19.7119205 L15.1030303,19.7119205 L15.7818182,20.3741722 L19.8545455,24.1821192 L18.4969697,24.8443709 L16.030747,25.1958653 L13.5757576,25.1958653 L11.969253,25.1958653 L9.5030303,24.8443709 L8.14545455,24.1821192 L12.2181818,20.3741722 L12.8969697,19.7119205 L13.5757576,19.7119205 Z"
      id="Combined-Shape" fill="#DBC0B1"/>
    <polygon id="left_bottom" fill="#F36F00"
             points="14.4242424 25.1958653 11.969253 25.1958653 9.5030303 24.8443709 8.14545455 24.1821192 1.52727273 26.5 0 20.0430464 5.26060606 19.3807947 8.82424242 19.2152318 12.2181818 20.3741722 12.8969697 19.7119205 14.4242424 19.7119205"
    />
    <polygon id="right_bottom" fill="#F36F00" transform="matrix(-1 0 0 1 41.576 0)"
             points="28 25.1958653 25.5450106 25.1958653 23.0787879 24.8443709 21.7212121 24.1821192 15.1030303 26.5 13.5757576 20.0430464 18.8363636 19.3807947 22.4 19.2152318 25.7939394 20.3741722 26.4727273 19.7119205 28 19.7119205"
    />
    <path
      d="M13.5757576,19.7119205 L15.1030303,19.7119205 L15.7818182,20.3741722 C15.7818182,20.3741722 16.0187353,23.9942377 16.1690236,24.1347554 C16.319312,24.275273 19.8545455,24.1821192 19.8545455,24.1821192 L18.4969697,24.8443709 L16.030747,25.1958653 L13.5757576,25.1958653 L11.969253,25.1958653 L9.5030303,24.8443709 L8.14545455,24.1821192 C8.14545455,24.1821192 11.680688,24.275273 11.8309764,24.1347554 C11.9812647,23.9942377 12.2181818,20.3741722 12.2181818,20.3741722 L12.8969697,19.7119205 L13.5757576,19.7119205 Z"
      id="Combined-Shape" fill="#C3AC9C"/>
    <path
      d="M13.5757576,22.5264901 L12.3826392,22.5264901 L11.8787879,23.1887417 L12.2181818,20.3741722 L12.8969697,19.7119205 L13.5757576,19.7119205 L15.1030303,19.7119205 L15.7818182,20.3741722 L16.1212121,23.1887417 L15.6173608,22.5264901 L13.5757576,22.5264901 Z"
      id="Combined-Shape" fill="#161616"/>
    <polygon id="1-copy" fill="#F16F00" transform="matrix(-1 0 0 1 42.764 0)"
             points="22.7393939 12.5927152 16.969697 14.0827815 15.7818182 12.5927152 16.2909091 12.2615894 15.4424242 11.5993377 16.1212121 11.102649 15.2727273 10.4403974 15.9515152 9.94370861 15.2727273 5.63907285 16.8 1.5 25.1151515 5.47350993 26.8121212 9.11589404 27.4909091 19.2152318 26.8121212 17.5596026 23.5878788 16.897351 23.5878788 18.718543 21.2121212 14.4139073"
    />
    <polygon id="1-copy" fill="#F16F00"
             points="7.97575758 12.5927152 2.20606061 14.0827815 1.01818182 12.5927152 1.52727273 12.2615894 0.678787879 11.5993377 1.35757576 11.102649 0.509090909 10.4403974 1.18787879 9.94370861 0.509090909 5.63907285 2.03636364 1.5 10.3515152 5.47350993 12.0484848 9.11589404 12.7272727 19.2152318 12.0484848 17.5596026 8.82424242 16.897351 8.82424242 18.718543 6.44848485 14.4139073"
    />
    <polygon id="1-copy-2" fill="#DB5A00"
             points="12.3878788 14.4139073 12.0484848 17.5596026 8.82424242 16.897351 6.44848485 14.4139073"
    />
    <polygon id="1-copy-2" fill="#DB5A00" transform="matrix(-1 0 0 1 37.164 0)"
             points="21.5515152 14.4139073 21.2121212 17.5596026 17.9878788 16.897351 15.6121212 14.4139073"
    />
    <polygon id="1-copy-3" fill-opacity="0.8" fill="#1F3449" transform="matrix(-1 0 0 1 35.467 0)"
             points="18.3272727 15.7384106 19.5151515 17.5596026 15.9515152 16.897351"
    />
    <polygon id="2" fill="#7E3A06" transform="matrix(-1 0 0 1 43.442 0)"
             points="17.6484848 14.0827815 16.4606061 12.5927152 16.969697 12.2615894 16.1212121 11.5993377 16.8 11.102649 15.9515152 10.4403974 16.630303 9.94370861 15.9515152 5.63907285 17.4787879 1.5 27.4909091 9.11589404 23.4181818 12.5927152"
    />
    <polygon id="1-copy-5" fill="#DB5A00" transform="matrix(-1 0 0 1 41.915 0)"
             points="22.0606061 24.1821192 19.1757576 19.3807947 22.7393939 19.2152318"
    />
    <polygon id="1-copy-5" fill="#DB5A00" points="8.14545455 24.1821192 5.26060606 19.3807947 8.82424242 19.2152318"
    />
    <polygon id="1-copy-3" fill-opacity="0.8" fill="#1F3449"
             points="10.8606061 15.7384106 12.0484848 17.5596026 8.48484848 16.897351"
    />
    <polygon id="2" fill="#7E3A06"
             points="2.20606061 14.0827815 1.01818182 12.5927152 1.52727273 12.2615894 0.678787879 11.5993377 1.35757576 11.102649 0.509090909 10.4403974 1.18787879 9.94370861 0.509090909 5.63907285 2.03636364 1.5 12.0484848 9.11589404 7.97575758 12.5927152"
    />
    <path
      d="M120.82937,16.0205111 C121.972626,16.781613 122.353712,17.9330236 122.148512,19.2112844 C121.913998,20.5188185 120.76097,21.7775639 118.533086,21.7775639 C117.682972,21.7775639 116.862173,21.5433787 116.109774,20.9774311 C115.308517,20.3822104 115.015374,19.7284434 115.015374,18.5477597 C115.015374,18.5184866 115.044689,18.4892134 115.074003,18.4892134 L116.70583,18.4892134 C116.735145,18.4892134 116.764459,18.5184866 116.764459,18.5477597 C116.764459,18.6550946 116.784002,18.8990375 116.823087,19.0258878 C117.04783,19.7284434 117.692744,20.1772984 118.523315,20.226087 C119.285485,20.2748755 120.047656,19.8552937 120.340799,19.2503153 C120.663256,18.5867906 120.428742,17.7476269 119.686114,17.2890143 C118.943486,16.8304016 116.84263,15.7765682 116.598345,15.6204447 C114.458403,14.2933953 114.819946,10.0878194 118.796914,10.0878194 C119.568857,10.0878194 120.291942,10.3415201 120.927084,10.8196482 C121.591541,11.3172917 121.953083,12.0979091 122.031255,13.0346499 C122.041026,13.0736807 122.011712,13.1029539 121.972626,13.1029539 L120.467827,13.1029539 C120.438513,13.1029539 120.409199,13.0834384 120.409199,13.0541653 C120.233313,11.6978427 118.581943,11.3270495 117.585258,11.9905742 C116.891487,12.4589446 116.754687,13.5322934 117.419144,14.0787255 C117.810001,14.4007302 118.2888,14.6251577 118.738286,14.8788583 C119.432057,15.2691669 120.164913,15.5814139 120.82937,16.0205111 Z M49.9767948,10.3024892 L50.934394,10.3024892 C50.9637083,10.3024892 50.9930226,10.3317624 50.9930226,10.3610355 L50.9930226,21.6214404 C50.9930226,21.6507136 50.9637083,21.6799867 50.934394,21.6799867 L49.3025667,21.6799867 C49.2732524,21.6799867 49.2439382,21.6507136 49.2439382,21.6214404 L49.2439382,13.063923 C49.2439382,12.995619 49.1462239,12.9761036 49.1266811,13.0444076 L47.778225,17.4841686 L47.6805108,17.7964155 C47.6707393,17.815931 47.6511965,17.8354464 47.6218822,17.8354464 L46.3711403,17.8354464 C46.3418261,17.8354464 46.3222832,17.8256887 46.3125118,17.7964155 L46.2147976,17.4841686 L44.8663415,13.0444076 C44.8467986,12.9858613 44.7490844,12.995619 44.7490844,13.063923 L44.7490844,21.6214404 C44.7490844,21.6507136 44.7197701,21.6799867 44.6904559,21.6799867 L43.0586285,21.6799867 C43.0293143,21.6799867 43,21.6507136 43,21.6214404 L43,10.3610355 C43,10.3317624 43.0293143,10.3024892 43.0586285,10.3024892 L44.0357706,10.3024892 L44.7588558,10.3024892 L45.5503409,10.3024892 C45.5796552,10.3024892 45.599198,10.3122469 45.6089695,10.3415201 L46.9476542,14.752008 C46.967197,14.8105543 47.0453684,14.8105543 47.0649112,14.752008 L48.4035959,10.3415201 C48.4133674,10.3220046 48.4329102,10.3024892 48.4622245,10.3024892 L49.2537096,10.3024892 L49.9767948,10.3024892 Z M95.843846,10.3024892 L98.3257869,10.3024892 C98.3551012,10.3024892 98.3844155,10.3317624 98.3844155,10.3610355 L98.3844155,21.6214404 C98.3844155,21.6507136 98.3551012,21.6799867 98.3257869,21.6799867 L96.6939596,21.6799867 C96.6646453,21.6799867 96.6353311,21.6507136 96.6353311,21.6214404 L96.6353311,13.063923 C96.6353311,12.995619 96.5376169,12.9761036 96.518074,13.0444076 L95.1696179,17.4841686 L95.0719037,17.7964155 C95.0621323,17.815931 95.0425894,17.8354464 95.0132752,17.8354464 L93.7625332,17.8354464 C93.733219,17.8354464 93.7136761,17.8256887 93.7039047,17.7964155 L93.6061905,17.4841686 L92.2577344,13.0444076 C92.2381915,12.9858613 92.1404773,12.995619 92.1404773,13.063923 L92.1404773,21.6214404 C92.1404773,21.6507136 92.1111631,21.6799867 92.0818488,21.6799867 L90.4500214,21.6799867 C90.4207072,21.6799867 90.3913929,21.6507136 90.3913929,21.6214404 L90.3913929,10.3610355 C90.3913929,10.3317624 90.4207072,10.3024892 90.4500214,10.3024892 L92.9319624,10.3024892 C92.9612767,10.3024892 92.9808195,10.3122469 92.990591,10.3415201 L94.3292757,14.752008 C94.3488185,14.8105543 94.4269899,14.8105543 94.4465327,14.752008 L95.7852174,10.3415201 C95.7949888,10.3220046 95.8145317,10.3024892 95.843846,10.3024892 Z M74.7962046,10.3024892 C74.8352903,10.3024892 74.8548332,10.3317624 74.8548332,10.3610355 L74.8548332,11.7661467 C74.8548332,11.7954198 74.8255189,11.824693 74.7962046,11.824693 L71.8159212,11.824693 L71.8159212,21.6214404 C71.8159212,21.6507136 71.7866069,21.6799867 71.7572926,21.6799867 L70.1254653,21.6799867 C70.096151,21.6799867 70.0668368,21.6507136 70.0668368,21.6214404 L70.0668368,11.824693 L67.0865533,11.824693 C67.057239,11.824693 67.0279248,11.7954198 67.0279248,11.7661467 L67.0279248,10.3610355 C67.0279248,10.3317624 67.057239,10.3024892 67.0865533,10.3024892 L70.1254653,10.3024892 L71.7572926,10.3024892 L74.7962046,10.3024892 Z M84.4210546,21.6799867 C84.4015117,21.6799867 84.3721974,21.6604713 84.362426,21.6409559 L83.4732267,18.3526054 C83.4634553,18.3330899 83.4439124,18.3135745 83.4145982,18.3135745 L80.1314006,18.3135745 C80.1020864,18.3135745 80.0825435,18.3233322 80.0727721,18.3526054 L79.1835728,21.6409559 C79.1738014,21.6604713 79.1542585,21.6799867 79.1249442,21.6799867 L77.6396882,21.6799867 C77.6006025,21.6799867 77.5712883,21.6409559 77.5810597,21.601925 L80.649286,10.3024892 C80.6590574,10.2829738 80.6786002,10.2634583 80.7079145,10.2634583 L81.2746569,10.2634583 L82.2713419,10.2634583 L82.8380843,10.2634583 C82.8673986,10.2634583 82.8869414,10.2732161 82.8967128,10.3024892 L85.9649391,21.601925 C85.9747105,21.6409559 85.9453963,21.6799867 85.9063106,21.6799867 L84.4210546,21.6799867 Z M80.5222575,16.7035513 C80.5124861,16.7425821 80.5418003,16.781613 80.580886,16.781613 L82.9651128,16.781613 C83.0041985,16.781613 83.0335127,16.7425821 83.0237413,16.7035513 L81.8316279,12.3028211 C81.8120851,12.2442748 81.7339137,12.2442748 81.7143709,12.3028211 L80.5222575,16.7035513 Z M109.748578,21.6799867 C109.719264,21.6799867 109.699721,21.6604713 109.68995,21.6409559 L108.80075,18.3526054 C108.790979,18.3330899 108.771436,18.3135745 108.742122,18.3135745 L105.458924,18.3135745 C105.42961,18.3135745 105.410067,18.3233322 105.400296,18.3526054 L104.511097,21.6409559 C104.501325,21.6604713 104.481782,21.6799867 104.452468,21.6799867 L102.967212,21.6799867 C102.928126,21.6799867 102.898812,21.6409559 102.908583,21.601925 L105.97681,10.3024892 C105.986581,10.2829738 106.006124,10.2634583 106.035438,10.2634583 L106.602181,10.2634583 L107.598866,10.2634583 L108.165608,10.2634583 C108.194922,10.2634583 108.214465,10.2732161 108.224237,10.3024892 L111.292463,21.601925 C111.302234,21.6409559 111.27292,21.6799867 111.233834,21.6799867 L109.748578,21.6799867 Z M105.849781,16.7035513 C105.84001,16.7425821 105.869324,16.781613 105.90841,16.781613 L108.292637,16.781613 C108.331722,16.781613 108.361037,16.7425821 108.351265,16.7035513 L107.159152,12.3028211 C107.139609,12.2442748 107.061438,12.2442748 107.041895,12.3028211 L105.849781,16.7035513 Z M57.6180461,20.0114172 C57.6180461,20.0504481 57.637589,20.0699635 57.6669033,20.0797212 L62.8262137,20.0797212 C62.8555279,20.0797212 62.8848422,20.1089944 62.8848422,20.1382675 L62.8848422,21.6214404 C62.8848422,21.6507136 62.8555279,21.6799867 62.8262137,21.6799867 L57.6180461,21.6799867 L55.9275903,21.6799867 C55.898276,21.6799867 55.8689617,21.6507136 55.8689617,21.6214404 L55.8689617,20.0797212 L55.8689617,16.4693661 L55.8689617,14.9471623 L55.8689617,11.8344507 L55.8689617,10.3707932 C55.8689617,10.3415201 55.898276,10.3122469 55.9275903,10.3122469 L57.6180461,10.3122469 L62.6210138,10.3122469 C62.6503281,10.3122469 62.6796423,10.3415201 62.6796423,10.3707932 L62.6796423,11.7759044 C62.6796423,11.8051776 62.6503281,11.8344507 62.6210138,11.8344507 L57.6766747,11.8344507 C57.6473604,11.8344507 57.6180461,11.8637239 57.6180461,11.892997 L57.6180461,14.8788583 C57.6180461,14.9081314 57.6473604,14.9374046 57.6766747,14.9374046 L62.0249571,14.9374046 C62.0542714,14.9374046 62.0835856,14.9666777 62.0835856,14.9959509 L62.0835856,16.4010621 C62.0835856,16.4303352 62.0542714,16.4596084 62.0249571,16.4596084 L57.6766747,16.4596084 C57.6473604,16.4596084 57.6180461,16.4888815 57.6180461,16.5181547 L57.6180461,20.0114172 Z M135.740559,21.5824096 C135.779644,21.6116827 135.75033,21.6799867 135.711245,21.6897444 L133.629932,21.6897444 C133.62016,21.6897444 133.600618,21.6799867 133.590846,21.670229 L128.705136,16.6352473 C128.675821,16.5962164 128.607421,16.6254895 128.607421,16.6742781 L128.607421,21.6311981 C128.607421,21.6604713 128.578107,21.6897444 128.548793,21.6897444 L126.916965,21.6897444 C126.887651,21.6897444 126.858337,21.6604713 126.858337,21.6311981 L126.858337,10.3707932 C126.858337,10.3415201 126.887651,10.3122469 126.916965,10.3122469 L128.548793,10.3122469 C128.578107,10.3122469 128.607421,10.3415201 128.607421,10.3707932 L128.607421,14.7617657 C128.607421,14.8105543 128.66605,14.8398274 128.705136,14.8007965 L133.014332,10.3317624 C133.024104,10.3220046 133.033875,10.3122469 133.053418,10.3122469 L135.134731,10.3122469 C135.183588,10.3122469 135.212902,10.3707932 135.173816,10.4098241 L130.092677,15.678991 C130.073134,15.6985065 130.073134,15.7375373 130.092677,15.7570528 L135.740559,21.5824096 Z"
      id="Combined-Shape" fill="#000000"/>
  </g>
</svg>
