<?xml version="1.0" encoding="UTF-8"?>
<svg width="142" height="30" viewBox="0 0 142 30" xmlns="http://www.w3.org/2000/svg">
  <g id="Icons/Clients/Origin/Parity" fill="#000000" fill-rule="evenodd">
    <path
      d="M43.2321404,1 L45.537803,4.68982056 L36.785193,10.1142894 L33.044922,10.1142894 L33.044922,12.4322939 L28.2659373,15.3941065 L26,11.7678832 L43.2321404,1 Z M46.1403424,5.65408282 L48.3900565,9.25439849 L47.0025755,10.1142894 L38.9435516,10.1142894 L46.1403424,5.65408282 Z M48.9925339,10.2185373 L51.1239979,13.6296028 L46.7502219,16.3402333 L39.1149744,16.3402333 L43.7953249,13.4395508 L47.1695568,13.4395508 L47.1695568,11.3483625 L48.9925339,10.2185373 Z M33.5780656,13.4395508 L41.6370895,13.4395508 L36.9566774,16.3402333 L33.0584928,16.3402333 L33.0584928,18.7561322 L31.1181906,19.9586225 L28.8684765,16.3583069 L33.5780656,13.4395508 Z M51.7265373,14.5938032 L54,18.2321783 L36.7678595,29 L34.4546098,25.2980891 L43.543218,19.6654328 L47.1831273,19.6654328 L47.1831273,17.4096069 L51.7265373,14.5938032 Z M33.7496735,19.6654328 L41.3848594,19.6654328 L33.8521323,24.3338268 L31.7207299,20.9228848 L33.7496735,19.6654328 Z"
      id="Combined-Shape" stroke="#FFF" stroke-width="0.5" fill-rule="nonzero"
    />
    <path
      d="M68.6331514,18.5986006 C69.0081825,18.5986006 69.3853611,18.5720041 69.7546123,18.5196838 C70.8458944,18.3653183 71.3418237,17.4760346 71.4421382,16.6949514 C71.5894229,15.551393 71.5637674,13.2805603 71.4396023,12.2236818 C71.305865,11.0911708 70.5662888,10.4150497 69.3566215,10.3198718 C69.1243974,10.3014058 68.8831036,10.2919891 68.6396623,10.2919891 C68.3804805,10.2919891 68.1128231,10.3026691 67.8444117,10.3234777 C66.6777853,10.4145214 65.831041,11.2375665 65.831041,12.2808712 L65.8285052,16.5327999 C65.8285052,17.372152 66.3714276,18.3530077 67.5633897,18.5240476 C67.9087674,18.5736348 68.2687891,18.5986006 68.6331514,18.5986006 Z M65.5552278,5.12 L65.5552506,5.12 L65.7647207,5.12 L65.7638068,9.88571467 C66.2409344,9.21195919 66.9141902,8.82467899 67.8183908,8.70324912 C68.1784124,8.65492522 68.5326542,8.63030392 68.8708127,8.63030392 C69.2850695,8.63030392 69.6926097,8.66723587 70.0826503,8.73960688 C71.4882175,9.00166756 72.4343623,9.7722316 72.8943329,11.03072 C73.0806833,11.5390626 73.1938141,12.1189034 73.2220054,12.7076098 C73.2646578,13.6293008 73.251476,14.5660127 73.2386369,15.471948 L73.2332225,15.8731695 C73.2267115,16.3605197 73.1920093,16.7559534 73.1238613,17.1171654 C72.8173437,18.7321574 71.884038,19.7327422 70.3497595,20.0914277 C69.8646818,20.2047271 69.3519382,20.2599183 68.7817154,20.2599183 C68.37036,20.2599183 67.9179741,20.2306116 67.3989024,20.1701608 C66.9535757,20.118208 65.9475986,19.9095471 65.3269559,19.4900662 C64.7936057,19.1299338 64,18.205165 64,17.1350801 L64,6.5330376 C64,5.41552452 65.017377,5.12 65.5552278,5.12 Z M107.484558,5.16340882 C107.914509,5.16340882 108.971112,5.29659812 109.498385,6.53388741 L114.690017,19.5446833 C114.73091,19.6684558 114.782084,19.974132 114.376806,20.1426226 C114.210034,20.2120997 114.048288,20.2472172 113.895223,20.2472172 C113.456362,20.2472172 113.097003,19.9576642 112.883398,19.4303045 L109.794462,11.6606532 C109.344407,12.7879276 106.925529,18.9559769 106.714209,19.4963594 C106.568226,19.8696982 106.398713,20.1789803 105.804959,20.1789803 C105.400823,20.1789803 105.108858,20.1789803 104.969044,19.9725013 C104.832428,19.7712589 104.925866,19.4945449 105.083956,19.0953215 L105.970817,16.8525553 C106.880524,14.5509459 107.772639,12.2945828 108.707018,9.95264235 C108.810051,9.69313108 108.670694,9.28972759 108.557381,9.00977513 L107.000005,5.21641812 L107.264099,5.17643147 C107.273009,5.17516825 107.354795,5.16340882 107.484558,5.16340882 Z M79.6413064,14.0081289 C80.3419996,14.0081289 81.087173,13.9855058 81.6344361,13.9478619 C81.7331285,13.9409716 81.8535012,13.9326573 81.8997633,13.9187159 C81.9134477,13.8662349 81.9144072,13.7254433 81.91459,13.6762237 C81.9151154,13.5723411 81.9172857,13.4690097 81.9198216,13.3654946 C81.9335517,12.7547164 81.9463909,12.1775857 81.597038,11.6549573 C81.0392889,10.8199461 80.2991644,10.3852377 79.3340578,10.3262568 C79.0987267,10.3117642 78.8531151,10.3047132 78.5831046,10.3047132 C78.3340433,10.3047132 78.0708864,10.310501 77.7549565,10.3231791 C76.897018,10.3581129 76.3916763,10.8588532 76.3320497,11.7340348 C76.3193933,11.9168112 76.3170402,12.1211313 76.3244421,12.3759342 C76.3575224,13.4196063 76.7880451,13.8454262 77.9134812,13.9473107 C78.3528452,13.9873203 78.9503454,14.0081289 79.6413064,14.0081289 Z M83.4258859,8.64573817 L83.6324774,8.64573817 L83.6355387,8.85242389 C83.6362698,8.90653563 83.7098322,14.2721648 83.6221741,16.319132 C83.5979351,16.8788762 83.523299,17.4065805 83.4004132,17.8876146 C83.1027368,19.0529003 82.3174469,19.8066291 81.1303737,20.0670591 C80.6136551,20.1803354 80.0318725,20.2404188 79.4471885,20.2404188 C78.6566441,20.2404188 77.9154688,20.1320345 77.3040328,19.9271632 C76.0284106,19.4995289 75.2693244,18.5932262 75.0668908,18.3255614 C74.8274246,18.0083324 74.8787584,17.7623721 74.9949732,17.648912 C75.220892,17.4259652 75.4596271,17.262183 75.6842894,17.1184745 C75.7618269,17.0688874 75.8458754,17.0435541 75.9335106,17.0435541 C76.2010081,17.0435541 76.4063203,17.2766526 76.5420452,17.4308343 C77.4124802,18.4196598 78.5957381,18.6272412 79.435446,18.6272412 C79.8429862,18.6272412 80.2568775,18.5791011 80.6655143,18.4842677 C81.2774985,18.3420292 81.6243155,18.0262472 81.725361,17.5189841 C81.8451855,16.9190466 81.8862159,16.312081 81.9106149,15.7981113 C81.9136762,15.7313444 81.9230656,15.5275526 81.9067997,15.4924581 C81.9055432,15.4919068 81.8795222,15.477621 81.7803043,15.477621 C81.741627,15.477621 81.6980607,15.4795962 81.6494455,15.4834088 C81.07904,15.5264731 80.3942472,15.5498312 79.7211742,15.5498312 C78.7405098,15.5498312 77.8200204,15.5007724 77.0589466,15.4079372 C75.8657509,15.2620698 75.0571358,14.5638767 74.7200738,13.3890135 C74.4825723,12.5599968 74.4874613,11.7134099 74.7346949,10.8724271 C75.0855098,9.67765089 75.9118302,8.94470783 77.1241933,8.75288217 C77.5782012,8.68067194 78.061497,8.64573817 78.601518,8.64573817 C78.763835,8.64573817 78.9261292,8.64899957 79.0877152,8.65478742 C80.2192967,8.69606025 81.3447327,9.28077022 81.8950571,10.111808 L81.9229057,10.1420334 C81.9224488,10.1192266 81.9219919,10.0946053 81.9219919,10.0680088 C81.9219919,8.94307713 82.9055576,8.64573817 83.4258859,8.64573817 Z M87.4600978,8.64566927 L87.6697506,8.64566927 L87.6697506,8.85559342 C87.6697506,9.76678827 87.674274,11.0658145 87.6791629,12.4084334 C87.684029,13.8457248 87.6894662,15.3333154 87.6894662,16.4536994 C87.6769926,17.1008583 87.8794034,17.5234168 88.3664915,17.8669207 C88.5853511,18.0214699 88.9930969,18.2559924 89.349509,18.4051212 C89.7122492,18.557144 90.1369692,18.6340396 90.6117665,18.6340396 C90.9672648,18.6340396 91.3404911,18.5900796 91.7207538,18.5030323 C91.8848528,18.4657558 91.9857155,18.4505512 92.0688502,18.4505512 C92.3211555,18.4505512 92.4185685,18.5998408 92.5125548,18.7440776 L92.5277241,18.7674356 C92.6088941,18.8913919 92.6900412,19.0642234 92.7523864,19.2462878 C92.9090835,19.688208 92.5566465,19.8702724 92.3977791,19.9281738 C92.0471698,20.0561265 91.7948417,20.0979276 91.3404911,20.1574597 C91.1033552,20.18842 90.8698517,20.2041529 90.6468343,20.2041529 C89.9007471,20.2041529 89.2486691,20.0322401 88.7084424,19.6932838 C88.3057683,19.4408236 88.0205655,19.1883634 87.7163782,18.8863161 C87.7109638,18.8810795 87.7051839,18.8756361 87.6995868,18.8702158 L87.6995868,18.8893938 C87.6995868,19.9426664 86.6822326,20.2208044 86.1445417,20.2208044 L85.9348889,20.2208044 L85.9339751,10.0416879 C85.9339751,8.93722038 86.9321848,8.64566927 87.4600978,8.64566927 Z M95.6667822,8.80880835 L95.6668964,8.80880835 L95.8765492,8.80880835 L95.876732,9.01854877 C95.8783312,10.4031754 95.878057,16.73356 95.8778743,18.3547073 L95.8778743,18.7164705 C95.8778743,19.9029094 94.8814694,20.2382598 94.3548129,20.2498355 L94.1404768,20.2545439 L94.1404768,10.0680088 C94.1404768,9.07192554 95.1388464,8.80880835 95.6667822,8.80880835 Z M100.879157,8.80880835 L100.879157,8.80887726 L101.089884,8.81025531 L101.089884,18.372622 L103.583306,18.372622 C103.839039,18.372622 104.02411,18.6770121 104.02411,18.8824116 L104.02411,19.7219474 C104.02411,19.8721558 103.947669,20.051487 103.583306,20.051487 L101.089884,20.051487 L101.089884,21.9415623 C101.089884,23.0078576 100.130009,23.1994995 99.6226798,23.1994995 L99.413027,23.1994995 L99.413027,20.051487 L98.1337953,20.051487 C97.8700901,20.051487 97.7363527,19.9405534 97.7363527,19.7219474 L97.7363527,18.8824116 C97.7363527,18.6686978 97.8744307,18.372622 98.1337953,18.372622 L99.413027,18.372622 L99.413027,10.0680088 C99.413027,9.07192554 100.372194,8.80880835 100.879157,8.80880835 Z M95.0054517,22.4600566 C95.6694551,22.4600566 96.2098646,23.0008065 96.2098646,23.666064 C96.2098646,24.330954 95.6694551,24.8722321 95.0054517,24.8722321 C94.34106,24.8722321 93.8006734,24.330954 93.8006734,23.666064 C93.8006734,23.0008065 94.34106,22.4600566 95.0054517,22.4600566 Z"
      id="Combined-Shape" transform="matrix(1 0 0 -1 0 29.992)"/>
  </g>
</svg>
