<?xml version="1.0" encoding="UTF-8"?>
<svg width="34px" height="20px" viewBox="0 0 34 20" version="1.1" xmlns="http://www.w3.org/2000/svg" xmlns:xlink="http://www.w3.org/1999/xlink">
    <g id="Artboard-Copy-4" stroke="none" stroke-width="1" fill="none" fill-rule="evenodd">
        <path d="M8.34331797,9.53703704 L8.34331797,8.14814815 C8.34331797,6.86971123 9.39555197,5.83333333 10.6935484,5.83333333 C11.9915448,5.83333333 13.0437788,6.86971123 13.0437788,8.14814815 L13.0437788,9.53703704 L13.4289175,9.53703704 C13.6218869,9.53703704 13.6918623,9.55712916 13.762409,9.59485797 C13.8329557,9.63258678 13.8883212,9.68795227 13.92605,9.75849901 C13.9637788,9.82904574 13.983871,9.89902112 13.983871,10.0919905 L13.983871,13.6117132 C13.983871,13.8046826 13.9637788,13.874658 13.92605,13.9452047 C13.8883212,14.0157514 13.8329557,14.0711169 13.762409,14.1088457 C13.6918623,14.1465745 13.6218869,14.1666667 13.4289175,14.1666667 L7.95817931,14.1666667 C7.76520989,14.1666667 7.69523451,14.1465745 7.62468778,14.1088457 C7.55414104,14.0711169 7.49877555,14.0157514 7.46104674,13.9452047 C7.42331793,13.874658 7.40322581,13.8046826 7.40322581,13.6117132 L7.40322581,10.0919905 C7.40322581,9.89902112 7.42331793,9.82904574 7.46104674,9.75849901 C7.49877555,9.68795227 7.55414104,9.63258678 7.62468778,9.59485797 C7.69523451,9.55712916 7.76520989,9.53703704 7.95817931,9.53703704 L8.34331797,9.53703704 Z M12.1036866,8.14814815 C12.1036866,7.381086 11.4723462,6.75925926 10.6935484,6.75925926 C9.91475054,6.75925926 9.28341014,7.381086 9.28341014,8.14814815 L9.28341014,9.53703704 L12.1036866,9.53703704 L12.1036866,8.14814815 Z" id="Combined-Shape" fill="#000000" fill-rule="nonzero"></path>
    </g>
</svg>